<?xml version="1.0" encoding="utf-8"?>
<!-- Generator: Adobe Illustrator 23.0.1, SVG Export Plug-In . SVG Version: 6.00 Build 0)  -->
<svg version="1.1" id="Calque_1" xmlns="http://www.w3.org/2000/svg" xmlns:xlink="http://www.w3.org/1999/xlink" x="0px" y="0px"
	 viewBox="0 0 200 57" style="enable-background:new 0 0 200 57;" xml:space="preserve">
<style type="text/css">
	.st0{fill:#FFFFFF;}
	.st1{fill:none;stroke:#2A292A;stroke-width:3;stroke-miterlimit:10;}
</style>
<path class="st0" d="M43.9,31.3l-23-0.1h-2.9c1-3.6,2.7-6.9,4.6-8.8h4h8c0-7.9-5.1-12.3-12.1-12.3c-6.1,0-11,4.3-11,16.1
	c0,13,4.4,17.9,12.4,17.9c4,0,8.9-1.4,12.8-3l3.9,8.4c-3.3,1.8-10.9,4.5-16.6,4.5C13.4,54.1,1,49,1,27.6C1,7.4,12.4,0.8,22.4,0.8
	c11.5,0,21.4,8.5,21.4,22C43.9,22.8,43.9,31.3,43.9,31.3z M68.4,54.1h-0.9L48.3,1.5h11l2.6,7.7L77,54.1H68.4z M92.4,10.8L80.7,43.6
	l-2.8-20.2l6.9-21.9h11L92.4,10.8z M137.7,47.3c-2.8,3.2-7.6,6.6-15.7,6.6c-0.7,0-1.3,0-1.9-0.1h-0.1c-2.6-0.2-4.7-0.7-6.6-1.5
	c-3.2-1.3-5.5-3.2-7.1-5.1c-4-4.4-5.6-8.7-5.6-20c0-11.1,1.6-15.4,5.6-19.8c2.6-2.9,6.9-6.1,13.8-6.6c0.6-0.1,1.2-0.1,1.9-0.1
	c1.5,0,2.8,0.1,4.1,0.3l-2.6,10.2c-0.5-0.1-1.1-0.1-1.6-0.1c-0.6,0-1.3,0.1-1.9,0.2c-2.8,0.4-5.2,1.8-6.5,3.6
	c-2,2.7-2.6,4.8-2.6,12.3c0,7.6,0.6,9.6,2.6,12.4c0.6,0.8,1.4,1.6,2.4,2.2c1.2,0.7,2.6,1.2,4.1,1.5c0.6,0.1,1.2,0.2,1.9,0.2
	c0.6,0,1.2-0.1,1.7-0.1c2.9-0.4,5.4-1.8,6.7-3.7c2-2.7,2.6-4.8,2.6-12.3c0-4.2-0.2-6.7-0.7-8.6l4.3-12.5c0.4,0.4,0.8,0.8,1.2,1.2
	c4,4.4,5.6,8.7,5.6,19.8C143.4,38.6,141.8,42.9,137.7,47.3z M164.6,4.5v18v3.6v12.6V54h-10.4V1.7h10.4V4.5z M169.7,32.8l1-4.7
	l2.6-12.4l11.4-13.9h12.5l-13,14.7l-4,4.5l-7.5,8.4L169.7,32.8z M195.6,54.1h-8.3l-7.1-12.2l-3.2-5.5l1.5-1.1l6.4-4.6l3.7,5.4
	l11.4,18h-3.2H195.6z"/>
<line class="st1" x1="21.5" y1="55.6" x2="200" y2="55.6"/>
</svg>
