<?xml version="1.0" encoding="utf-8"?>
<!-- Generator: Adobe Illustrator 23.0.6, SVG Export Plug-In . SVG Version: 6.00 Build 0)  -->
<svg version="1.1" id="Calque_1" xmlns="http://www.w3.org/2000/svg" xmlns:xlink="http://www.w3.org/1999/xlink" x="0px" y="0px"
	 viewBox="0 0 32 35" style="enable-background:new 0 0 32 35;" xml:space="preserve">
<style type="text/css">
	.st0{fill-rule:evenodd;clip-rule:evenodd;fill:#245A9B;}
</style>
<g>
	<g>
		<path class="st0" d="M11.36,17.89V34.5c0,0.24,0.19,0.43,0.43,0.43h6.17c0.24,0,0.43-0.19,0.43-0.43V17.62h4.47
			c0.22,0,0.41-0.17,0.43-0.4l0.43-5.08c0.02-0.25-0.18-0.47-0.43-0.47h-4.9V8.06c0-0.85,0.69-1.53,1.53-1.53h3.45
			c0.24,0,0.43-0.19,0.43-0.43V1.01c0-0.24-0.19-0.43-0.43-0.43h-5.83c-3.41,0-6.18,2.77-6.18,6.19v4.9H8.27
			c-0.24,0-0.43,0.19-0.43,0.43v5.08c0,0.24,0.19,0.43,0.43,0.43h3.08L11.36,17.89L11.36,17.89z"/>
	</g>
</g>
</svg>
