<?xml version="1.0" encoding="utf-8"?>
<!-- Generator: Adobe Illustrator 23.0.6, SVG Export Plug-In . SVG Version: 6.00 Build 0)  -->
<svg version="1.1" id="Calque_1" xmlns="http://www.w3.org/2000/svg" xmlns:xlink="http://www.w3.org/1999/xlink" x="0px" y="0px"
	 viewBox="0 0 35.83 35.83" style="enable-background:new 0 0 35.83 35.83;" xml:space="preserve">
<style type="text/css">
	.st0{fill:url(#SVGID_1_);}
</style>
<g>
	<linearGradient id="SVGID_1_" gradientUnits="userSpaceOnUse" x1="1.0742" y1="32.2529" x2="52.7812" y2="-11.7749">
		<stop  offset="1.104800e-03" style="stop-color:#FFE185"/>
		<stop  offset="0.2094" style="stop-color:#FFBB36"/>
		<stop  offset="0.3765" style="stop-color:#FF5176"/>
		<stop  offset="0.5238" style="stop-color:#F63395"/>
		<stop  offset="0.7394" style="stop-color:#A436D2"/>
		<stop  offset="1" style="stop-color:#5F4EED"/>
	</linearGradient>
	<path class="st0" d="M27.34,6.6c-1.16,0-2.11,0.94-2.11,2.11c0,1.16,0.94,2.11,2.11,2.11c1.16,0,2.11-0.94,2.11-2.11
		C29.45,7.54,28.5,6.6,27.34,6.6z M17.97,9.3c-4.88,0-8.85,3.97-8.85,8.85s3.97,8.85,8.85,8.85s8.85-3.97,8.85-8.85
		S22.85,9.3,17.97,9.3z M17.97,23.81c-3.13,0-5.67-2.54-5.67-5.67c0-3.13,2.54-5.67,5.67-5.67c3.13,0,5.67,2.54,5.67,5.67
		C23.64,21.27,21.1,23.81,17.97,23.81z M35.83,10.79C35.83,4.83,31,0,25.04,0H10.79C4.83,0,0,4.83,0,10.79v14.24
		C0,31,4.83,35.83,10.79,35.83h14.24c5.96,0,10.79-4.83,10.79-10.79V10.79z M32.45,25.04c0,4.09-3.32,7.41-7.41,7.41H10.79
		c-4.09,0-7.41-3.32-7.41-7.41V10.79c0-4.09,3.32-7.41,7.41-7.41h14.24c4.09,0,7.41,3.32,7.41,7.41V25.04z"/>
</g>
</svg>
