<?xml version="1.0" encoding="utf-8"?>
<!-- Generator: Adobe Illustrator 23.0.6, SVG Export Plug-In . SVG Version: 6.00 Build 0)  -->
<svg version="1.1" id="Calque_1" xmlns="http://www.w3.org/2000/svg" xmlns:xlink="http://www.w3.org/1999/xlink" x="0px" y="0px"
	 viewBox="0 0 30.21 28.86" style="enable-background:new 0 0 30.21 28.86;" xml:space="preserve">
<style type="text/css">
	.st0{fill:#007BBC;}
</style>
<g>
	<g>
		<g>
			<g>
				<path class="st0" d="M30.21,17.7v10.68c0,0.26-0.21,0.48-0.48,0.48h-5.51c-0.26,0-0.48-0.21-0.48-0.48v-9.93
					c0-2.61-0.93-4.4-3.28-4.4c-1.79,0-2.85,1.2-3.32,2.37c-0.17,0.42-0.21,0.99-0.21,1.58v10.39c0,0.26-0.21,0.48-0.48,0.48h-5.51
					c-0.26,0-0.48-0.21-0.48-0.48c0.01-2.64,0.07-15.48,0.01-18.5c-0.01-0.27,0.21-0.48,0.48-0.48h5.5c0.26,0,0.48,0.21,0.48,0.48
					v2.28c-0.01,0.02-0.03,0.04-0.04,0.06h0.04v-0.06c0.86-1.32,2.39-3.21,5.83-3.21C27.02,8.94,30.21,11.72,30.21,17.7L30.21,17.7z
					 M0.9,28.86h5.51c0.26,0,0.48-0.21,0.48-0.48V9.88c0-0.26-0.21-0.48-0.48-0.48H0.9c-0.26,0-0.48,0.21-0.48,0.48v18.5
					C0.42,28.64,0.64,28.86,0.9,28.86z"/>
			</g>
		</g>
	</g>
	<g>
		<path class="st0" d="M6.93,3.46c0,1.91-1.55,3.46-3.46,3.46S0,5.38,0,3.46S1.55,0,3.46,0S6.93,1.55,6.93,3.46z"/>
	</g>
</g>
</svg>
