<?xml version="1.0" encoding="utf-8"?>
<!-- Generator: Adobe Illustrator 23.0.6, SVG Export Plug-In . SVG Version: 6.00 Build 0)  -->
<svg version="1.1" id="Calque_1" xmlns="http://www.w3.org/2000/svg" xmlns:xlink="http://www.w3.org/1999/xlink" x="0px" y="0px"
	 viewBox="0 0 33.4 27.51" style="enable-background:new 0 0 33.4 27.51;" xml:space="preserve">
<style type="text/css">
	.st0{fill:#00CCFF;}
	.st1{fill-rule:evenodd;clip-rule:evenodd;fill:#FFFFFF;}
</style>
<g>
	<g>
		<g>
			<path class="st0" d="M33.27,3.3c-1.06,0.48-2.23,0.77-3.37,0.96c0.54-0.09,1.34-1.08,1.66-1.47c0.49-0.61,0.89-1.3,1.12-2.05
				c0.03-0.06,0.05-0.13-0.01-0.18c-0.07-0.03-0.12-0.01-0.18,0.01c-1.28,0.68-2.6,1.18-4.01,1.53c-0.12,0.03-0.2,0-0.28-0.07
				c-0.12-0.13-0.23-0.26-0.35-0.36c-0.59-0.5-1.23-0.9-1.94-1.19c-0.94-0.38-1.97-0.55-2.98-0.48c-0.98,0.06-1.95,0.34-2.82,0.8
				c-0.88,0.46-1.66,1.09-2.28,1.86C17.2,3.47,16.73,4.4,16.48,5.4c-0.23,0.96-0.22,1.91-0.07,2.88c0.02,0.16,0.01,0.18-0.14,0.16
				C10.77,7.62,6.21,5.65,2.5,1.43C2.34,1.24,2.26,1.24,2.12,1.44C0.5,3.87,1.29,7.77,3.31,9.69c0.27,0.26,0.55,0.51,0.85,0.74
				C4.05,10.46,2.7,10.31,1.5,9.69c-0.16-0.1-0.24-0.04-0.26,0.14c-0.01,0.26,0.01,0.5,0.04,0.79c0.31,2.46,2.02,4.74,4.35,5.63
				c0.28,0.12,0.58,0.22,0.88,0.27c-0.53,0.12-1.08,0.2-2.61,0.08c-0.19-0.04-0.26,0.06-0.19,0.24c1.15,3.13,3.62,4.06,5.48,4.58
				c0.25,0.04,0.5,0.04,0.75,0.1c-0.01,0.02-0.03,0.02-0.04,0.04c-0.61,0.94-2.75,1.63-3.74,1.98c-1.81,0.63-3.77,0.91-5.68,0.73
				c-0.31-0.04-0.37-0.04-0.45,0c-0.08,0.05-0.01,0.12,0.09,0.2c0.39,0.26,0.78,0.48,1.18,0.7c1.21,0.64,2.48,1.15,3.8,1.52
				c6.82,1.88,14.51,0.5,19.63-4.59c4.02-4,5.43-9.51,5.43-15.03c0-0.22,0.26-0.34,0.41-0.45c1.05-0.79,1.88-1.73,2.66-2.78
				c0.18-0.24,0.16-0.45,0.16-0.53c0-0.01,0-0.03,0-0.03C33.4,3.21,33.41,3.24,33.27,3.3z"/>
		</g>
		<g>
			<path class="st1" d="M9.92,27.39C12.75,27.39,10.05,27.39,9.92,27.39C10.29,27.39,9.9,27.39,9.92,27.39z"/>
		</g>
		<g>
			<path class="st1" d="M9.92,27.39C9.87,27.39,9.37,27.39,9.92,27.39C9.92,27.39,9.83,27.39,9.92,27.39z"/>
		</g>
		<g>
			<path class="st1" d="M11.04,27.42C11.04,27.36,11.63,27.42,11.04,27.42C11.04,27.39,11.11,27.42,11.04,27.42z"/>
		</g>
		<g>
			<path class="st1" d="M22.85,0.04c-0.04,0.03-0.09,0.03-0.14,0C22.77,0.04,22.82,0.04,22.85,0.04z"/>
		</g>
	</g>
</g>
</svg>
