<?xml version="1.0" encoding="utf-8"?>
<!-- Generator: Adobe Illustrator 23.0.2, SVG Export Plug-In . SVG Version: 6.00 Build 0)  -->
<svg version="1.1" id="Calque_1" xmlns="http://www.w3.org/2000/svg" xmlns:xlink="http://www.w3.org/1999/xlink" x="0px" y="0px"
	 viewBox="0 0 1920 27.6" style="enable-background:new 0 0 1920 27.6;" xml:space="preserve">
<style type="text/css">
	.st0{fill:none;stroke:#FF0000;stroke-width:0.5;stroke-miterlimit:10;}
	.st1{fill:none;}
	.st2{enable-background:new    ;}
	.st3{fill:#FF0000;}
</style>
<line class="st0" x1="0" y1="26.7" x2="173.7" y2="26.7"/>
<line class="st0" x1="398.6" y1="26.8" x2="1920" y2="26.8"/>
<rect x="167.2" y="0.1" class="st1" width="253.1" height="33.1"/>
<g class="st2">
	<path class="st3" d="M183.3,22.2c-1.1,3.8-3.5,5.3-6.8,5.3c-4.7,0-7.6-3.6-7.6-9.4c0-5.7,3.2-9.4,7.7-9.4c3.9,0,6,2.7,6.6,5.4h-0.8
		c-0.7-2.7-2.4-4.8-5.9-4.8c-4.6,0-6.9,4.1-6.9,8.7c0,5,2.3,8.7,6.8,8.7c3.1,0,5.1-1.7,6-4.6h0.9V22.2z"/>
	<path class="st3" d="M202.4,18.1c0,6-3.2,9.5-7.9,9.5s-7.7-3.6-7.7-9.4c0-6.2,3.5-9.5,7.9-9.5C199,8.7,202.4,12.2,202.4,18.1z
		 M187.5,18.2c0,4.8,2.4,8.8,7,8.8s7.2-3.8,7.2-8.8c0-4.8-2.5-8.8-7.1-8.8C189.9,9.3,187.5,13.5,187.5,18.2z"/>
	<path class="st3" d="M207.2,13.3c0-1.5,0-3.2,0-4.1h0.7c0,0.6,0.1,2.8,0,4.2c0.6-2,2.3-4.6,6.2-4.6c3,0,4.8,1.7,5.4,4.2
		c0.5-1.5,2.1-4.2,6.2-4.2c3.2,0,5.9,1.9,5.9,6.6v11.7h-0.8V15.5c0-3.2-1.5-6-5.2-6c-3.8,0-5.9,2.8-5.9,6.6v11.1H219V15.4
		c0-3.4-1.6-5.9-5-5.9c-3.6,0-6.1,2.9-6.1,7.7v9.9h-0.7V13.3z"/>
	<path class="st3" d="M237.9,13.3c0-1.5,0-3.2,0-4.1h0.7c0,0.6,0.1,2.8,0,4.2c0.6-2,2.3-4.6,6.2-4.6c3,0,4.8,1.7,5.4,4.2
		c0.5-1.5,2.1-4.2,6.2-4.2c3.2,0,5.9,1.9,5.9,6.6v11.7h-0.8V15.5c0-3.2-1.5-6-5.2-6c-3.8,0-5.9,2.8-5.9,6.6v11.1h-0.8V15.4
		c0-3.4-1.6-5.9-5-5.9c-3.6,0-6.1,2.9-6.1,7.7v9.9h-0.7V13.3H237.9z"/>
	<path class="st3" d="M281.8,22.2c0,1.8,0,4.1,0,4.9h-0.7c0-0.3-0.1-2.7-0.1-4.4c-0.8,2.7-2.8,4.8-6.4,4.8c-2.5,0-6.2-1.2-6.2-6.7
		V9.2h0.7V21c0,3,1.5,5.8,5.5,5.8c3.7,0,6.4-2.5,6.4-7.7V9.3h0.8L281.8,22.2L281.8,22.2z"/>
	<path class="st3" d="M287.9,13.6c0-1.8,0-4,0-4.4h0.7c0,0.8,0.1,2.4,0,4.5c0.6-1.9,2.5-4.9,6.8-4.9c3,0,6,1.7,6,6.9v11.4h-0.8V15.8
		c0-3.6-1.7-6.3-5.4-6.3c-4.3,0-6.7,3.6-6.7,7.8v9.8h-0.7V13.6H287.9z"/>
	<path class="st3" d="M307.7,3.3V0h0.7v3.3H307.7z M307.7,9.2h0.7v17.9h-0.7V9.2z"/>
	<path class="st3" d="M327.7,22.2c-1.1,3.8-3.5,5.3-6.8,5.3c-4.7,0-7.6-3.6-7.6-9.4c0-5.7,3.2-9.4,7.7-9.4c3.9,0,6,2.7,6.6,5.4h-0.8
		c-0.7-2.7-2.4-4.8-5.9-4.8c-4.6,0-6.9,4.1-6.9,8.7c0,5,2.3,8.7,6.8,8.7c3.1,0,5.1-1.7,6-4.6h0.9L327.7,22.2L327.7,22.2z"/>
	<path class="st3" d="M344.4,23.1c0,2.3,0.1,3.6,0.2,4h-0.7c-0.1-0.6-0.2-1.7-0.2-4c-1,3-3.2,4.4-6.5,4.4c-4.3,0-6-2.6-6-5.1
		c0-3.9,3-5.4,8-5.4c2.1,0,3.2,0,4.5,0v-2.5c0-2.6-1.1-5.1-5.3-5.1c-4,0-5.3,2-5.6,4.7H332c0.1-2.6,1.6-5.4,6.3-5.4
		c4.3,0,6,2.4,6,5.5v8.9C344.3,23.1,344.4,23.1,344.4,23.1z M343.7,17.7c-1.2,0-2.7,0-4.6,0c-4.9,0-7.2,1.5-7.2,4.8
		c0,2.8,2.2,4.5,5.3,4.5c4.2,0,6.5-2.6,6.5-7.5L343.7,17.7L343.7,17.7z"/>
	<path class="st3" d="M347.7,9.2h3.3V3.3h0.7v5.9h4.5v0.7h-4.5v13.5c0,1.9,0.4,3.4,2.6,3.4c0.5,0,1.1,0,1.4-0.2v0.6
		c-0.5,0.2-1,0.2-1.5,0.2c-2.4,0-3.3-1-3.3-4.2V9.9h-3.3L347.7,9.2L347.7,9.2z"/>
	<path class="st3" d="M359.7,3.3V0h0.7v3.3H359.7z M359.7,9.2h0.7v17.9h-0.7V9.2z"/>
	<path class="st3" d="M381,18.1c0,6-3.2,9.5-7.9,9.5c-4.7,0-7.7-3.6-7.7-9.4c0-6.2,3.5-9.5,7.9-9.5C377.6,8.7,381,12.2,381,18.1z
		 M366.1,18.2c0,4.8,2.4,8.8,7,8.8s7.2-3.8,7.2-8.8c0-4.8-2.5-8.8-7.1-8.8C368.5,9.3,366.1,13.5,366.1,18.2z"/>
	<path class="st3" d="M385.8,13.6c0-1.8,0-4,0-4.4h0.7c0,0.8,0.1,2.4,0,4.5c0.6-1.9,2.5-4.9,6.8-4.9c3,0,6,1.7,6,6.9v11.4h-0.8V15.8
		c0-3.6-1.7-6.3-5.4-6.3c-4.3,0-6.7,3.6-6.7,7.8v9.8h-0.7V13.6H385.8z"/>
</g>
</svg>
