<?xml version="1.0" encoding="utf-8"?>
<!-- Generator: Adobe Illustrator 23.0.2, SVG Export Plug-In . SVG Version: 6.00 Build 0)  -->
<svg version="1.1" id="Calque_1" xmlns="http://www.w3.org/2000/svg" xmlns:xlink="http://www.w3.org/1999/xlink" x="0px" y="0px"
	 viewBox="0 0 1722 20.2" style="enable-background:new 0 0 1722 20.2;" xml:space="preserve">
<style type="text/css">
	.st0{fill:none;stroke:#FF0000;stroke-width:0.5;stroke-miterlimit:10;}
	.st1{fill:none;}
	.st2{enable-background:new    ;}
	.st3{fill:#FF0000;}
</style>
<line class="st0" x1="0" y1="19.2" x2="37.8" y2="19.2"/>
<line class="st0" x1="200.6" y1="19.4" x2="1722" y2="19.4"/>
<rect x="32.8" y="0" class="st1" width="183" height="23.9"/>
<g class="st2">
	<path class="st3" d="M44.4,16c-0.8,2.7-2.5,3.8-4.9,3.8c-3.4,0-5.5-2.6-5.5-6.8c0-4.1,2.3-6.8,5.6-6.8c2.8,0,4.3,2,4.8,3.9h-0.6
		c-0.5-2-1.7-3.5-4.3-3.5c-3.3,0-5,3-5,6.3c0,3.6,1.7,6.3,4.9,6.3c2.2,0,3.7-1.2,4.3-3.3L44.4,16L44.4,16z"/>
	<path class="st3" d="M58.3,13c0,4.3-2.3,6.9-5.7,6.9S47,17.3,47,13.1c0-4.5,2.5-6.9,5.7-6.9C55.8,6.2,58.3,8.7,58.3,13z M47.5,13.1
		c0,3.5,1.7,6.4,5.1,6.4s5.2-2.7,5.2-6.4c0-3.5-1.8-6.4-5.1-6.4C49.2,6.7,47.5,9.7,47.5,13.1z"/>
	<path class="st3" d="M61.7,9.5c0-1.1,0-2.3,0-3h0.5c0,0.4,0.1,2,0,3c0.4-1.4,1.7-3.3,4.5-3.3c2.2,0,3.5,1.2,3.9,3
		c0.4-1.1,1.5-3,4.5-3c2.3,0,4.3,1.4,4.3,4.8v8.5h-0.6v-8.4c0-2.3-1.1-4.3-3.8-4.3c-2.7,0-4.3,2-4.3,4.8v8h-0.5v-8.5
		c0-2.5-1.2-4.3-3.6-4.3c-2.6,0-4.4,2.1-4.4,5.6v7.2h-0.5C61.7,19.6,61.7,9.5,61.7,9.5z"/>
	<path class="st3" d="M83.9,9.5c0-1.1,0-2.3,0-3h0.5c0,0.4,0.1,2,0,3c0.4-1.4,1.7-3.3,4.5-3.3c2.2,0,3.5,1.2,3.9,3
		c0.4-1.1,1.5-3,4.5-3c2.3,0,4.3,1.4,4.3,4.8v8.5H101v-8.4c0-2.3-1.1-4.3-3.8-4.3c-2.7,0-4.3,2-4.3,4.8v8h-0.6v-8.5
		c0-2.5-1.2-4.3-3.6-4.3c-2.6,0-4.4,2.1-4.4,5.6v7.2h-0.5L83.9,9.5L83.9,9.5z"/>
	<path class="st3" d="M115.7,16c0,1.3,0,3,0,3.5h-0.5c0-0.2-0.1-2-0.1-3.2c-0.6,2-2,3.5-4.6,3.5c-1.8,0-4.5-0.9-4.5-4.8V6.6h0.5v8.5
		c0,2.2,1.1,4.2,4,4.2c2.7,0,4.6-1.8,4.6-5.6v-7h0.6V16L115.7,16z"/>
	<path class="st3" d="M120.1,9.8c0-1.3,0-2.9,0-3.2h0.5c0,0.6,0.1,1.7,0,3.3c0.4-1.4,1.8-3.5,4.9-3.5c2.2,0,4.3,1.2,4.3,5v8.2h-0.6
		v-8.2c0-2.6-1.2-4.6-3.9-4.6c-3.1,0-4.8,2.6-4.8,5.6v7.1H120L120.1,9.8L120.1,9.8z"/>
	<path class="st3" d="M134.4,2.3v-2.4h0.5v2.4H134.4z M134.4,6.6h0.5v12.9h-0.5V6.6z"/>
	<path class="st3" d="M148.8,16c-0.8,2.7-2.5,3.8-4.9,3.8c-3.4,0-5.5-2.6-5.5-6.8c0-4.1,2.3-6.8,5.6-6.8c2.8,0,4.3,2,4.8,3.9h-0.6
		c-0.5-2-1.7-3.5-4.3-3.5c-3.3,0-5,3-5,6.3c0,3.6,1.7,6.3,4.9,6.3c2.2,0,3.7-1.2,4.3-3.3L148.8,16L148.8,16L148.8,16z"/>
	<path class="st3" d="M160.9,16.6c0,1.7,0.1,2.6,0.1,2.9h-0.5c-0.1-0.4-0.1-1.2-0.1-2.9c-0.7,2.2-2.3,3.2-4.7,3.2
		c-3.1,0-4.3-1.9-4.3-3.7c0-2.8,2.2-3.9,5.8-3.9c1.5,0,2.3,0,3.3,0v-1.8c0-1.9-0.8-3.7-3.8-3.7c-2.9,0-3.8,1.4-4,3.4h-0.6
		c0.1-1.9,1.2-3.9,4.6-3.9c3.1,0,4.3,1.7,4.3,4L160.9,16.6C160.8,16.6,160.9,16.6,160.9,16.6z M160.4,12.7c-0.9,0-2,0-3.3,0
		c-3.5,0-5.2,1.1-5.2,3.5c0,2,1.6,3.3,3.8,3.3c3,0,4.7-1.9,4.7-5.4V12.7L160.4,12.7z"/>
	<path class="st3" d="M163.3,6.6h2.4V2.3h0.5v4.3h3.3v0.5h-3.3v9.8c0,1.4,0.3,2.5,1.9,2.5c0.4,0,0.8,0,1-0.1v0.4
		c-0.4,0.1-0.7,0.1-1.1,0.1c-1.7,0-2.4-0.7-2.4-3V7.1h-2.4L163.3,6.6L163.3,6.6z"/>
	<path class="st3" d="M172,2.3v-2.4h0.5v2.4H172z M172,6.6h0.5v12.9H172V6.6z"/>
	<path class="st3" d="M187.4,13c0,4.3-2.3,6.9-5.7,6.9s-5.6-2.6-5.6-6.8c0-4.5,2.5-6.9,5.7-6.9C184.9,6.2,187.4,8.7,187.4,13z
		 M176.6,13.1c0,3.5,1.7,6.4,5.1,6.4c3.3,0,5.2-2.7,5.2-6.4c0-3.5-1.8-6.4-5.1-6.4C178.3,6.7,176.6,9.7,176.6,13.1z"/>
	<path class="st3" d="M190.8,9.8c0-1.3,0-2.9,0-3.2h0.5c0,0.6,0.1,1.7,0,3.3c0.4-1.4,1.8-3.5,4.9-3.5c2.2,0,4.3,1.2,4.3,5v8.2H200
		v-8.2c0-2.6-1.2-4.6-3.9-4.6c-3.1,0-4.8,2.6-4.8,5.6v7.1h-0.5V9.8L190.8,9.8z"/>
</g>
</svg>
