<?xml version="1.0" encoding="utf-8"?>
<!-- Generator: Adobe Illustrator 23.0.2, SVG Export Plug-In . SVG Version: 6.00 Build 0)  -->
<svg version="1.1" id="Calque_1" xmlns="http://www.w3.org/2000/svg" xmlns:xlink="http://www.w3.org/1999/xlink" x="0px" y="0px"
	 viewBox="0 0 995 20.2" style="enable-background:new 0 0 995 20.2;" xml:space="preserve">
<style type="text/css">
	.st0{fill:none;stroke:#FF0000;stroke-width:0.5;stroke-miterlimit:10;}
	.st1{fill:none;}
	.st2{enable-background:new    ;}
	.st3{fill:#FF0000;}
</style>
<line class="st0" x1="0" y1="19.2" x2="37.8" y2="19.2"/>
<line class="st0" x1="152.6" y1="19.3" x2="1029.3" y2="19.3"/>
<rect x="32.8" class="st1" width="183" height="23.9"/>
<g class="st2">
	<path class="st3" d="M44,17.2c-0.6,1.9-1.8,2.7-3.4,2.7c-2.4,0-3.8-1.8-3.8-4.7c0-2.9,1.6-4.7,3.9-4.7c2,0,3,1.4,3.3,2.7h-0.4
		c-0.4-1.4-1.2-2.4-3-2.4c-2.3,0-3.5,2.1-3.5,4.4c0,2.5,1.2,4.4,3.4,4.4c1.6,0,2.6-0.9,3-2.3L44,17.2L44,17.2z"/>
	<path class="st3" d="M53.6,15.1c0,3-1.6,4.8-4,4.8s-3.9-1.8-3.9-4.7c0-3.1,1.8-4.8,4-4.8C51.9,10.4,53.6,12.1,53.6,15.1z
		 M46.1,15.2c0,2.4,1.2,4.4,3.5,4.4c2.3,0,3.6-1.9,3.6-4.4c0-2.4-1.3-4.4-3.6-4.4C47.3,10.7,46.1,12.8,46.1,15.2z"/>
	<path class="st3" d="M56,12.7c0-0.8,0-1.6,0-2.1h0.4c0,0.3,0.1,1.4,0,2.1c0.3-1,1.2-2.3,3.1-2.3c1.5,0,2.4,0.9,2.7,2.1
		c0.3-0.8,1.1-2.1,3.1-2.1c1.6,0,3,1,3,3.3v5.9h-0.4v-5.8c0-1.6-0.8-3-2.6-3c-1.9,0-3,1.4-3,3.3v5.6h-0.4v-5.9c0-1.7-0.8-3-2.5-3
		c-1.8,0-3.1,1.5-3.1,3.9v5H56V12.7z"/>
	<path class="st3" d="M71.4,12.7c0-0.8,0-1.6,0-2.1h0.4c0,0.3,0.1,1.4,0,2.1c0.3-1,1.2-2.3,3.1-2.3c1.5,0,2.4,0.9,2.7,2.1
		c0.3-0.8,1.1-2.1,3.1-2.1c1.6,0,3,1,3,3.3v5.9h-0.4v-5.8c0-1.6-0.8-3-2.6-3c-1.9,0-3,1.4-3,3.3v5.6h-0.4v-5.9c0-1.7-0.8-3-2.5-3
		c-1.8,0-3.1,1.5-3.1,3.9v5h-0.4L71.4,12.7L71.4,12.7z"/>
	<path class="st3" d="M93.5,17.2c0,0.9,0,2.1,0,2.5h-0.4c0-0.2-0.1-1.4-0.1-2.2c-0.4,1.4-1.4,2.4-3.2,2.4c-1.3,0-3.1-0.6-3.1-3.4
		v-5.8h0.4v5.9c0,1.5,0.8,2.9,2.8,2.9c1.9,0,3.2-1.3,3.2-3.9v-4.9h0.4L93.5,17.2L93.5,17.2z"/>
	<path class="st3" d="M96.6,12.8c0-0.9,0-2,0-2.2h0.4c0,0.4,0.1,1.2,0,2.3c0.3-1,1.3-2.5,3.4-2.5c1.5,0,3,0.9,3,3.5v5.7H103v-5.7
		c0-1.8-0.9-3.2-2.7-3.2c-2.2,0-3.4,1.8-3.4,3.9v4.9h-0.4L96.6,12.8L96.6,12.8z"/>
	<path class="st3" d="M106.6,7.7V6h0.4v1.7H106.6z M106.6,10.6h0.4v9h-0.4V10.6z"/>
	<path class="st3" d="M116.6,17.2c-0.6,1.9-1.8,2.7-3.4,2.7c-2.4,0-3.8-1.8-3.8-4.7c0-2.9,1.6-4.7,3.9-4.7c2,0,3,1.4,3.3,2.7h-0.4
		c-0.4-1.4-1.2-2.4-3-2.4c-2.3,0-3.5,2.1-3.5,4.4c0,2.5,1.2,4.4,3.4,4.4c1.6,0,2.6-0.9,3-2.3L116.6,17.2L116.6,17.2L116.6,17.2z"/>
	<path class="st3" d="M125,17.6c0,1.2,0.1,1.8,0.1,2h-0.4c-0.1-0.3-0.1-0.9-0.1-2c-0.5,1.5-1.6,2.2-3.3,2.2c-2.2,0-3-1.3-3-2.6
		c0-2,1.5-2.7,4-2.7c1.1,0,1.6,0,2.3,0v-1.3c0-1.3-0.6-2.6-2.7-2.6c-2,0-2.7,1-2.8,2.4h-0.4c0.1-1.3,0.8-2.7,3.2-2.7
		c2.2,0,3,1.2,3,2.8L125,17.6C125,17.6,125,17.6,125,17.6z M124.7,14.9c-0.6,0-1.4,0-2.3,0c-2.5,0-3.6,0.8-3.6,2.4
		c0,1.4,1.1,2.3,2.7,2.3c2.1,0,3.3-1.3,3.3-3.8L124.7,14.9L124.7,14.9z"/>
	<path class="st3" d="M126.7,10.6h1.7v-3h0.4v3h2.3V11h-2.3v6.8c0,1,0.2,1.7,1.3,1.7c0.3,0,0.6,0,0.7-0.1v0.3
		c-0.3,0.1-0.5,0.1-0.8,0.1c-1.2,0-1.7-0.5-1.7-2.1V11h-1.7L126.7,10.6L126.7,10.6z"/>
	<path class="st3" d="M132.7,7.7V6h0.4v1.7H132.7z M132.7,10.6h0.4v9h-0.4V10.6z"/>
	<path class="st3" d="M143.4,15.1c0,3-1.6,4.8-4,4.8c-2.4,0-3.9-1.8-3.9-4.7c0-3.1,1.8-4.8,4-4.8C141.7,10.4,143.4,12.1,143.4,15.1z
		 M135.9,15.2c0,2.4,1.2,4.4,3.5,4.4s3.6-1.9,3.6-4.4c0-2.4-1.3-4.4-3.6-4.4C137.1,10.7,135.9,12.8,135.9,15.2z"/>
	<path class="st3" d="M145.8,12.8c0-0.9,0-2,0-2.2h0.4c0,0.4,0.1,1.2,0,2.3c0.3-1,1.3-2.5,3.4-2.5c1.5,0,3,0.9,3,3.5v5.7h-0.4v-5.7
		c0-1.8-0.9-3.2-2.7-3.2c-2.2,0-3.4,1.8-3.4,3.9v4.9h-0.4L145.8,12.8L145.8,12.8z"/>
</g>
</svg>
