<?xml version="1.0" encoding="utf-8"?>
<!-- Generator: Adobe Illustrator 23.0.1, SVG Export Plug-In . SVG Version: 6.00 Build 0)  -->
<svg version="1.1" id="Layer_1" xmlns="http://www.w3.org/2000/svg" xmlns:xlink="http://www.w3.org/1999/xlink" x="0px" y="0px"
	 viewBox="0 0 356.27 95.45" style="enable-background:new 0 0 356.27 95.45;" xml:space="preserve">
<style type="text/css">
	.st0{fill:#FFFFFF;}
</style>
<path class="st0" d="M76.87,54.82l-41.22-0.09l-5.18,0c1.78-6.39,4.92-12.36,8.32-15.74h7.06l14.26-0.02
	c0-14.14-9.08-22.12-21.67-22.12c-11.04,0-19.67,7.74-19.67,28.87c0,23.29,7.9,32.07,22.24,32.07c7.17,0,16-2.52,22.99-5.42
	l7.04,15.07c-5.89,3.32-19.54,8.01-29.66,8.01C22.24,95.45,0,86.24,0,47.99C0,11.77,20.42,0,38.44,0
	c20.59,0,38.43,15.29,38.43,39.36V54.82z M120.37,94.29h-1.65L84.61,1.3h19.8l4.62,13.8l26.56,79.19H120.37z M163.78,17.98
	L142.9,76.74l-5.1-36.15L150.09,1.3h19.81L163.78,17.98z M245.2,83.45c-5.14,5.66-13.75,11.9-28.23,11.9c-1.15,0-2.3-0.04-3.38-0.11
	c-0.03,0-0.07-0.01-0.09-0.01c-4.6-0.34-8.55-1.33-11.92-2.7c-5.74-2.37-9.87-5.81-12.82-9.08c-7.15-7.9-10.08-15.58-10.08-35.76
	c0-19.98,2.92-27.67,10.08-35.54c4.72-5.23,12.37-10.91,24.83-11.8c1.08-0.07,2.23-0.12,3.38-0.12c2.66,0,5.12,0.21,7.4,0.59
	l-4.56,18.3c-0.91-0.12-1.88-0.19-2.84-0.19c-1.14,0-2.27,0.09-3.38,0.27c-5.04,0.82-9.38,3.34-11.63,6.51
	c-3.49,4.93-4.58,8.62-4.58,21.98c0,13.56,1.09,17.24,4.58,22.17c1.03,1.47,2.49,2.76,4.29,3.87c2.09,1.27,4.61,2.21,7.34,2.66
	c1.11,0.16,2.24,0.26,3.38,0.26c1.05,0,2.07-0.08,3.06-0.23c5.17-0.74,9.67-3.32,11.97-6.55c3.49-4.93,4.57-8.61,4.57-21.99
	c0-7.55-0.34-12.05-1.25-15.39l7.82-22.43c0.75,0.69,1.42,1.39,2.06,2.1c7.14,7.87,10.08,15.57,10.08,35.54
	C255.28,67.87,252.35,75.55,245.2,83.45z M293.37,6.74v32.32v6.36v22.56v27.47h-18.7V1.66h18.7V6.74z M302.6,57.45l1.8-8.44
	l4.74-22.33L329.5,1.77h22.36L328.53,28.2l-7.05,7.95l-13.44,15.12L302.6,57.45z M348.31,95.45h-15.1l-12.02-21.07l-5.7-10.21
	l2.7-1.98l11.52-8.52l6.56,10l20.01,31.79H348.31z"/>
</svg>
