<?xml version="1.0" encoding="utf-8"?>
<!-- Generator: Adobe Illustrator 24.0.2, SVG Export Plug-In . SVG Version: 6.00 Build 0)  -->
<svg version="1.1" id="Calque_1" xmlns="http://www.w3.org/2000/svg" xmlns:xlink="http://www.w3.org/1999/xlink" x="0px" y="0px"
	 viewBox="0 0 581.1 581.1" style="enable-background:new 0 0 581.1 581.1;" xml:space="preserve">
<style type="text/css">
	.st0{fill:#2DBDEE;}
</style>
<g>
	<path class="st0" d="M205.3,261h36.6v117.6h-36.6V261z M223.6,202.5c11.7,0,21.2,9.5,21.2,21.2c0,11.7-9.5,21.2-21.2,21.2
		c-11.7,0-21.2-9.5-21.2-21.2C202.4,212,211.8,202.5,223.6,202.5"/>
	<path class="st0" d="M264.7,261h35.1v16.1h0.5c4.9-9.3,16.8-19,34.6-19c37,0,43.8,24.3,43.8,56v64.5h-36.5v-57.2
		c0-13.6-0.2-31.2-19-31.2c-19,0-21.9,14.9-21.9,30.2v58.2h-36.5V261z"/>
</g>
</svg>
