<?xml version="1.0" encoding="utf-8"?>
<!-- Generator: Adobe Illustrator 24.0.2, SVG Export Plug-In . SVG Version: 6.00 Build 0)  -->
<svg version="1.1" id="Calque_1" xmlns="http://www.w3.org/2000/svg" xmlns:xlink="http://www.w3.org/1999/xlink" x="0px" y="0px"
	 viewBox="0 0 581.1 581.1" style="enable-background:new 0 0 581.1 581.1;" xml:space="preserve">
<style type="text/css">
	.st0{fill:#2DBDEE;}
</style>
<g>
	<path class="st0" d="M334.6,186.3h-88.1c-33.2,0-60.2,26.9-60.2,60.2v88.1c0,33.2,26.9,60.2,60.2,60.2h88.1
		c33.2,0,60.2-26.9,60.2-60.2v-88.1C394.8,213.2,367.9,186.3,334.6,186.3 M375.6,336.2c0,22.1-17.9,40-40,40h-90.2
		c-22.1,0-40-17.9-40-40V246c0-22.1,17.9-40,40-40h90.2c22.1,0,40,17.9,40,40V336.2z"/>
	<path class="st0" d="M290.5,237c-29.9,0-54.1,24.2-54.1,54.1c0,29.9,24.2,54.1,54.1,54.1c29.9,0,54.1-24.2,54.1-54.1
		C344.7,261.2,320.4,237,290.5,237 M290.5,326.1c-19.4,0-35.1-15.7-35.1-35.1s15.7-35.1,35.1-35.1c19.4,0,35.1,15.7,35.1,35.1
		S309.9,326.1,290.5,326.1"/>
	<path class="st0" d="M346.5,222.3c-7,0-12.6,5.6-12.6,12.6c0,7,5.6,12.6,12.6,12.6c7,0,12.6-5.6,12.6-12.6
		C359.1,227.9,353.4,222.3,346.5,222.3"/>
</g>
</svg>
