<?xml version="1.0" encoding="utf-8"?>
<!-- Generator: Adobe Illustrator 23.0.2, SVG Export Plug-In . SVG Version: 6.00 Build 0)  -->
<svg version="1.1" id="Calque_1" xmlns="http://www.w3.org/2000/svg" xmlns:xlink="http://www.w3.org/1999/xlink" x="0px" y="0px"
	 viewBox="0 0 850 450" style="enable-background:new 0 0 850 450;" xml:space="preserve">
<style type="text/css">
	.st0{fill:#EBD7DA;}
	.st1{fill:#FFFFFF;}
	.st2{fill:#E2E1E1;}
	.st3{fill:#E3E2E2;}
	.st4{fill:#E4E3E3;}
	.st5{fill:#E4E4E4;}
	.st6{fill:#E5E5E5;}
	.st7{fill:#E6E6E5;}
	.st8{fill:#E7E6E6;}
	.st9{fill:#E8E7E7;}
	.st10{fill:#E8E8E8;}
	.st11{fill:#E9E9E9;}
	.st12{fill:#EAEAEA;}
	.st13{fill:#EBEBEB;}
	.st14{fill:#ECEBEB;}
	.st15{fill:#EDECEC;}
	.st16{fill:#EDEDED;}
	.st17{fill:#EEEEEE;}
	.st18{fill:#EFEFEF;}
	.st19{fill:#F0F0F0;}
	.st20{fill:#F1F0F1;}
	.st21{fill:#F2F1F1;}
	.st22{fill:#F2F2F2;}
	.st23{fill:#F3F3F3;}
	.st24{fill:#F4F4F4;}
	.st25{fill:#F5F4F5;}
	.st26{fill:#F6F5F6;}
	.st27{fill:#F6F6F6;}
	.st28{fill:#F7F7F7;}
	.st29{fill:#F8F8F8;}
	.st30{fill:#F9F9F9;}
	.st31{fill:#FAFAFA;}
	.st32{fill:#FBFAFB;}
	.st33{fill:#FBFBFB;}
	.st34{fill:#FCFCFC;}
	.st35{fill:#FDFDFD;}
	.st36{fill:#FEFDFE;}
	.st37{fill:#FEFEFE;}
	.st38{fill:#EBEAEB;}
	.st39{fill:#ECEBEC;}
	.st40{fill:#F0EFF0;}
	.st41{fill:#353535;}
	.st42{fill:#E3E6E3;}
	.st43{enable-background:new    ;}
	.st44{fill:#222323;}
	.st45{fill:#494A4B;}
	.st46{fill:#4E4E50;}
	.st47{fill:#38393A;}
	.st48{fill:#7B7A7D;}
	.st49{fill:#8E8E91;}
	.st50{fill:#444345;}
	.st51{fill:#F1F1F2;}
	.st52{fill:#D8D8D8;}
	.st53{fill:#DBDBDB;}
	.st54{fill:#7F8082;}
	.st55{fill:url(#XMLID_2_);}
	.st56{fill:#6E6F70;}
	.st57{fill:url(#XMLID_3_);}
	.st58{fill:url(#XMLID_4_);}
	.st59{fill:#A7A6A6;}
	.st60{opacity:0.21;fill:#58585A;}
</style>
<rect class="st0" width="850" height="450"/>
<g id="XMLID_939_">
	
		<image style="overflow:visible;" width="1468" height="917" xlink:href="2E45896D.png"  transform="matrix(0.24 0 0 0.24 447.36 165.84)">
	</image>
</g>
<g>
	<path class="st1" d="M580.9,279.2l186.2-109.8c0,0,18.4,8.4,20,30.5c1.6,22.1-10.4,42.4-10.4,42.4L601.1,343l-21.6-63.5
		L580.9,279.2z"/>
	<g>
		<g>
			<g>
				<polygon class="st2" points="599.8,359 787,250.2 787.1,199.8 599.9,308.6 				"/>
			</g>
			<polygon class="st3" points="599.9,358.7 786.8,250.2 786.9,199.9 600,308.5 			"/>
			<polygon class="st4" points="600.1,358.5 786.6,250.1 786.7,200 600.2,308.4 			"/>
			<polygon class="st5" points="600.2,358.3 786.4,250.1 786.5,200.1 600.3,308.2 			"/>
			<polygon class="st6" points="600.4,358.1 786.2,250.1 786.3,200.1 600.5,308.1 			"/>
			<polygon class="st7" points="600.5,357.8 786,250.1 786.1,200.2 600.6,308 			"/>
			<polygon class="st8" points="600.7,357.6 785.7,250 785.8,200.3 600.8,307.8 			"/>
			<polygon class="st9" points="600.8,357.4 785.5,250 785.6,200.4 600.9,307.7 			"/>
			<polygon class="st10" points="600.9,357.1 785.3,250 785.4,200.4 601,307.6 			"/>
			<polygon class="st11" points="601.1,356.9 785.1,250 785.2,200.5 601.2,307.4 			"/>
			<polygon class="st12" points="601.2,356.7 784.9,250 785,200.6 601.3,307.3 			"/>
			<polygon class="st13" points="601.4,356.5 784.7,249.9 784.8,200.7 601.5,307.2 			"/>
			<polygon class="st14" points="601.5,356.2 784.5,249.9 784.6,200.7 601.6,307 			"/>
			<polygon class="st15" points="601.7,356 784.3,249.9 784.4,200.8 601.8,306.9 			"/>
			<polygon class="st16" points="601.8,355.8 784.1,249.9 784.2,200.9 601.9,306.8 			"/>
			<polygon class="st17" points="602,355.5 783.8,249.8 783.9,200.9 602.1,306.6 			"/>
			<polygon class="st18" points="602.1,355.3 783.6,249.8 783.7,201 602.2,306.5 			"/>
			<polygon class="st19" points="602.3,355.1 783.4,249.8 783.5,201.1 602.4,306.4 			"/>
			<polygon class="st20" points="602.4,354.8 783.2,249.8 783.3,201.2 602.5,306.2 			"/>
			<polygon class="st21" points="602.6,354.6 783,249.8 783.1,201.2 602.7,306.1 			"/>
			<polygon class="st22" points="602.7,354.4 782.8,249.7 782.9,201.3 602.8,306 			"/>
			<polygon class="st23" points="602.8,354.2 782.6,249.7 782.7,201.4 602.9,305.8 			"/>
			<polygon class="st24" points="603,353.9 782.4,249.7 782.5,201.5 603.1,305.7 			"/>
			<polygon class="st25" points="603.1,353.7 782.2,249.7 782.3,201.5 603.2,305.6 			"/>
			<polygon class="st26" points="603.3,353.5 782,249.6 782.1,201.6 603.4,305.4 			"/>
			<polygon class="st27" points="603.4,353.2 781.7,249.6 781.8,201.7 603.5,305.3 			"/>
			<polygon class="st28" points="603.6,353 781.5,249.6 781.6,201.8 603.7,305.2 			"/>
			<polygon class="st29" points="603.7,352.8 781.3,249.6 781.4,201.8 603.8,305 			"/>
			<polygon class="st30" points="603.9,352.6 781.1,249.5 781.2,201.9 604,304.9 			"/>
			<polygon class="st31" points="604,352.3 780.9,249.5 781,202 604.1,304.8 			"/>
			<polygon class="st32" points="604.2,352.1 780.7,249.5 780.8,202 604.3,304.6 			"/>
			<polygon class="st33" points="604.3,351.9 780.5,249.5 780.6,202.1 604.4,304.5 			"/>
			<polygon class="st34" points="604.4,351.6 780.3,249.5 780.4,202.2 604.5,304.4 			"/>
			<polygon class="st35" points="604.6,351.4 780.1,249.4 780.2,202.3 604.7,304.2 			"/>
			<polygon class="st36" points="604.7,351.2 779.9,249.4 779.9,202.3 604.8,304.1 			"/>
			<polygon class="st37" points="604.9,351 779.6,249.4 779.7,202.4 605,304 			"/>
			<g>
				<polygon class="st1" points="605,350.7 779.4,249.4 779.5,202.5 605.1,303.8 				"/>
			</g>
		</g>
		<g>
			<polygon class="st22" points="462.1,210.4 583.7,280.6 770.9,171.8 649.4,101.6 			"/>
		</g>
		<g>
			<g>
				<path class="st8" d="M787,198L787,198c0-0.7-0.1-1.4-0.2-2.1l0,0c0,0,0,0,0,0c-0.1-0.7-0.2-1.4-0.4-2.1c-0.1-0.5-0.3-1-0.4-1.6
					c-0.1-0.2-0.1-0.4-0.2-0.5c0-0.1-0.1-0.2-0.1-0.3c-0.3-1-0.7-2-1.1-3c0-0.1-0.1-0.1-0.1-0.2c-0.8-1.9-1.8-3.7-2.9-5.4
					c-0.2-0.4-0.5-0.8-0.7-1.1c-1.2-1.7-2.4-3.4-3.8-4.8c0,0-0.1-0.1-0.1-0.1c-0.7-0.8-1.5-1.5-2.3-2.1c-0.1-0.1-0.2-0.2-0.3-0.3
					c-0.2-0.1-0.3-0.2-0.5-0.4c-0.4-0.3-0.7-0.6-1.1-0.8c-0.6-0.4-1.2-0.8-1.8-1.1l0,0c-0.1,0-0.1-0.1-0.1-0.1L583.7,280.6
					c1,0.6,2,1.3,3,2.1c0.2,0.1,0.3,0.2,0.5,0.4c0.9,0.8,1.8,1.6,2.7,2.5c1.4,1.5,2.6,3.1,3.8,4.8c0.3,0.4,0.5,0.7,0.7,1.1
					c1.1,1.7,2.1,3.6,2.9,5.4c0.5,1.2,0.9,2.3,1.3,3.5c0.1,0.2,0.1,0.4,0.2,0.5c0.4,1.2,0.6,2.4,0.8,3.6c0,0,0,0,0,0.1
					c0.2,1.3,0.3,2.7,0.3,3.9l187.2-108.8C787.1,199.2,787.1,198.6,787,198L787,198z"/>
			</g>
			<path class="st9" d="M786.8,198L786.8,198c0-0.7-0.1-1.4-0.2-2.1l0,0c0,0,0,0,0,0c-0.1-0.7-0.2-1.4-0.4-2.1
				c-0.1-0.5-0.3-1-0.4-1.6c-0.1-0.2-0.1-0.4-0.2-0.5c0-0.1-0.1-0.2-0.1-0.3c-0.3-1-0.7-2-1.1-3c0-0.1-0.1-0.1-0.1-0.2
				c-0.8-1.9-1.8-3.7-2.9-5.4c-0.2-0.4-0.5-0.8-0.7-1.1c-1.2-1.7-2.4-3.3-3.8-4.8c0,0-0.1-0.1-0.1-0.1c-0.7-0.7-1.5-1.5-2.3-2.1
				c-0.1-0.1-0.2-0.2-0.3-0.3c-0.2-0.1-0.3-0.2-0.5-0.4c-0.4-0.3-0.7-0.6-1.1-0.8c-0.6-0.4-1.2-0.8-1.8-1.1l0,0
				c-0.1,0-0.1-0.1-0.1-0.1L583.8,280.5c1,0.6,2.1,1.4,3.1,2.1c0.2,0.1,0.3,0.2,0.5,0.4c0.9,0.8,1.8,1.6,2.7,2.5
				c1.4,1.5,2.6,3.1,3.8,4.8c0.3,0.4,0.5,0.7,0.7,1.1c1.1,1.7,2.1,3.6,2.9,5.4c0.5,1.2,0.9,2.3,1.3,3.5c0.1,0.2,0.1,0.4,0.2,0.5
				c0.4,1.2,0.7,2.4,0.8,3.6c0,0,0,0,0,0.1c0.2,1.3,0.3,2.7,0.3,3.9l186.8-108.7C786.9,199.3,786.9,198.6,786.8,198L786.8,198z"/>
			<path class="st10" d="M786.6,198.1L786.6,198.1c0-0.7-0.1-1.4-0.2-2.1l0,0c0,0,0,0,0,0c-0.1-0.7-0.2-1.4-0.4-2.1
				c-0.1-0.5-0.3-1-0.4-1.6c-0.1-0.2-0.1-0.4-0.2-0.5c0-0.1-0.1-0.2-0.1-0.3c-0.3-1-0.7-2-1.1-3c0-0.1-0.1-0.1-0.1-0.2
				c-0.8-1.9-1.8-3.7-2.9-5.4c-0.2-0.4-0.5-0.8-0.7-1.1c-1.2-1.7-2.4-3.3-3.8-4.8c0,0-0.1-0.1-0.1-0.1c-0.7-0.7-1.5-1.5-2.3-2.1
				c-0.1-0.1-0.2-0.2-0.3-0.3c-0.2-0.1-0.3-0.2-0.5-0.4c-0.4-0.3-0.7-0.6-1.1-0.8c-0.6-0.4-1.2-0.8-1.8-1.1l0,0
				c-0.1,0-0.1-0.1-0.1-0.1L583.9,280.4c1,0.6,2.2,1.5,3.2,2.2c0.2,0.1,0.3,0.2,0.5,0.4c0.9,0.8,1.8,1.6,2.7,2.5
				c1.4,1.4,2.6,3.1,3.8,4.8c0.3,0.4,0.5,0.7,0.7,1.1c1.1,1.7,2.1,3.6,2.9,5.4c0.5,1.2,0.9,2.3,1.3,3.5c0.1,0.2,0.1,0.4,0.2,0.5
				c0.4,1.2,0.7,2.4,0.8,3.6c0,0,0,0,0,0.1c0.2,1.3,0.3,2.7,0.3,3.9L786.7,200C786.8,199.4,786.7,198.7,786.6,198.1L786.6,198.1z"/>
			<path class="st11" d="M786.4,198.2L786.4,198.2c0-0.7-0.1-1.4-0.2-2.1l0,0c0,0,0,0,0,0c-0.1-0.7-0.2-1.4-0.4-2.1
				c-0.1-0.5-0.3-1-0.4-1.6c-0.1-0.2-0.1-0.4-0.2-0.5c0-0.1-0.1-0.2-0.1-0.3c-0.3-1-0.7-2-1.1-3c0-0.1-0.1-0.1-0.1-0.2
				c-0.8-1.9-1.8-3.7-2.9-5.4c-0.2-0.4-0.5-0.7-0.7-1.1c-1.2-1.7-2.4-3.3-3.8-4.8c0,0-0.1-0.1-0.1-0.1c-0.7-0.7-1.5-1.5-2.2-2.1
				c-0.1-0.1-0.2-0.2-0.3-0.3c-0.2-0.1-0.3-0.2-0.5-0.4c-0.4-0.3-0.7-0.6-1.1-0.8c-0.6-0.4-1.2-0.8-1.7-1.1l0,0
				c-0.1,0-0.1-0.1-0.1-0.1L584,280.4c1,0.6,2.3,1.5,3.3,2.3c0.2,0.1,0.3,0.2,0.5,0.4c0.9,0.8,1.8,1.6,2.7,2.5
				c1.4,1.4,2.6,3.1,3.8,4.8c0.3,0.4,0.5,0.7,0.7,1.1c1.1,1.7,2.1,3.6,2.9,5.4c0.5,1.2,0.9,2.3,1.3,3.5c0.1,0.2,0.1,0.4,0.2,0.5
				c0.4,1.2,0.7,2.4,0.8,3.6c0,0,0,0,0,0.1c0.2,1.3,0.3,2.7,0.3,3.9l186.1-108.5C786.6,199.5,786.6,198.8,786.4,198.2L786.4,198.2z"
				/>
			<path class="st12" d="M786.2,198.2L786.2,198.2c0-0.7-0.1-1.4-0.2-2.1l0,0c0,0,0,0,0,0c-0.1-0.7-0.2-1.4-0.4-2.1
				c-0.1-0.5-0.3-1-0.4-1.6c-0.1-0.2-0.1-0.4-0.2-0.5c0-0.1-0.1-0.2-0.1-0.3c-0.3-1-0.7-2-1.1-3c0-0.1-0.1-0.1-0.1-0.2
				c-0.8-1.9-1.8-3.7-2.9-5.4c-0.2-0.4-0.5-0.7-0.7-1.1c-1.2-1.7-2.4-3.3-3.8-4.8c0,0-0.1-0.1-0.1-0.1c-0.7-0.7-1.5-1.5-2.2-2.1
				c-0.1-0.1-0.2-0.2-0.3-0.3c-0.2-0.1-0.3-0.2-0.5-0.4c-0.4-0.3-0.7-0.6-1.1-0.8c-0.6-0.4-1.2-0.8-1.7-1.1l0,0
				c-0.1,0-0.1-0.1-0.1-0.1L584.2,280.3c1,0.6,2.4,1.6,3.4,2.4c0.2,0.1,0.3,0.2,0.5,0.4c0.9,0.8,1.8,1.6,2.7,2.5
				c1.4,1.4,2.6,3.1,3.8,4.8c0.3,0.4,0.5,0.7,0.7,1.1c1.1,1.7,2.1,3.6,2.9,5.4c0.5,1.2,0.9,2.3,1.3,3.5c0.1,0.2,0.1,0.4,0.2,0.5
				c0.3,1.2,0.7,2.4,0.8,3.6c0,0,0,0,0,0.1c0.2,1.3,0.3,2.7,0.3,3.9l185.7-108.3C786.4,199.6,786.4,198.8,786.2,198.2L786.2,198.2z"
				/>
			<path class="st38" d="M786.1,198.3L786.1,198.3c0-0.7-0.1-1.4-0.2-2.1l0,0c0,0,0,0,0,0c-0.1-0.7-0.2-1.4-0.4-2.1
				c-0.1-0.5-0.3-1-0.4-1.6c-0.1-0.2-0.1-0.4-0.2-0.5c0-0.1-0.1-0.2-0.1-0.3c-0.3-1-0.7-2-1.1-3c0-0.1-0.1-0.1-0.1-0.2
				c-0.8-1.9-1.8-3.7-2.9-5.4c-0.2-0.4-0.5-0.7-0.7-1.1c-1.2-1.7-2.4-3.3-3.8-4.8c0,0-0.1-0.1-0.1-0.1c-0.7-0.7-1.5-1.5-2.2-2.1
				c-0.1-0.1-0.2-0.2-0.3-0.3c-0.2-0.1-0.3-0.2-0.5-0.4c-0.3-0.3-0.7-0.6-1.1-0.8c-0.6-0.4-1.2-0.8-1.7-1.1l0,0
				c-0.1,0-0.1-0.1-0.1-0.1l-185.9,108c1,0.6,2.6,1.7,3.5,2.5c0.2,0.1,0.3,0.2,0.5,0.4c0.9,0.8,1.8,1.6,2.7,2.5
				c1.4,1.4,2.6,3.1,3.8,4.8c0.2,0.4,0.5,0.7,0.7,1.1c1.1,1.7,2.1,3.6,2.9,5.4c0.5,1.2,0.9,2.3,1.3,3.5c0.1,0.2,0.1,0.4,0.2,0.5
				c0.3,1.2,0.7,2.4,0.8,3.6c0,0,0,0,0,0.1c0.2,1.3,0.3,2.6,0.3,3.9l185.3-108.2C786.2,199.7,786.2,198.9,786.1,198.3L786.1,198.3z"
				/>
			<path class="st39" d="M785.9,198.4L785.9,198.4c0-0.7-0.1-1.4-0.2-2.1l0,0c0,0,0,0,0,0c-0.1-0.7-0.2-1.4-0.4-2.1
				c-0.1-0.5-0.3-1-0.4-1.6c-0.1-0.2-0.1-0.4-0.2-0.5c0-0.1-0.1-0.2-0.1-0.3c-0.3-1-0.7-2-1.1-3c0-0.1-0.1-0.1-0.1-0.2
				c-0.8-1.9-1.8-3.7-2.9-5.4c-0.2-0.4-0.5-0.7-0.7-1.1c-1.1-1.7-2.4-3.3-3.8-4.8c0,0-0.1-0.1-0.1-0.1c-0.7-0.7-1.5-1.5-2.2-2.1
				c-0.1-0.1-0.2-0.2-0.3-0.3c-0.2-0.1-0.3-0.2-0.5-0.4c-0.3-0.3-0.7-0.6-1-0.8c-0.6-0.4-1.2-0.8-1.7-1.1l0,0
				c-0.1,0-0.1-0.1-0.1-0.1L584.4,280.1c1,0.6,2.7,1.8,3.6,2.5c0.2,0.1,0.3,0.2,0.5,0.4c0.9,0.8,1.8,1.6,2.7,2.5
				c1.4,1.4,2.6,3.1,3.8,4.8c0.2,0.4,0.5,0.7,0.7,1.1c1.1,1.7,2.1,3.6,2.9,5.4c0.5,1.2,0.9,2.3,1.3,3.5c0.1,0.2,0.1,0.4,0.2,0.5
				c0.3,1.2,0.7,2.4,0.8,3.6c0,0,0,0,0,0.1c0.2,1.3,0.3,2.6,0.3,3.9L786,200.4C786,199.8,786,199,785.9,198.4L785.9,198.4z"/>
			<path class="st15" d="M785.7,198.4L785.7,198.4c0-0.7-0.1-1.4-0.2-2l0,0c0,0,0,0,0,0c-0.1-0.7-0.2-1.4-0.4-2.1
				c-0.1-0.5-0.3-1-0.4-1.6c-0.1-0.2-0.1-0.4-0.2-0.5c0-0.1-0.1-0.2-0.1-0.3c-0.3-1-0.7-2-1.1-3c0-0.1-0.1-0.1-0.1-0.2
				c-0.8-1.9-1.8-3.7-2.9-5.4c-0.2-0.4-0.5-0.7-0.7-1.1c-1.1-1.7-2.4-3.3-3.8-4.8c0,0-0.1-0.1-0.1-0.1c-0.7-0.7-1.5-1.5-2.2-2.1
				c-0.1-0.1-0.2-0.2-0.3-0.3c-0.2-0.1-0.3-0.2-0.5-0.4c-0.3-0.3-0.7-0.6-1-0.8c-0.6-0.4-1.1-0.8-1.7-1.1l0,0
				c-0.1,0-0.1-0.1-0.1-0.1L584.6,280.1c1,0.6,2.8,1.9,3.7,2.6c0.2,0.1,0.3,0.2,0.5,0.4c0.9,0.8,1.8,1.6,2.7,2.5
				c1.4,1.4,2.6,3.1,3.7,4.8c0.2,0.4,0.5,0.7,0.7,1.1c1.1,1.7,2.1,3.6,2.9,5.4c0.5,1.2,0.9,2.3,1.3,3.5c0.1,0.2,0.1,0.4,0.2,0.5
				c0.3,1.2,0.6,2.4,0.8,3.6c0,0,0,0,0,0.1c0.2,1.3,0.3,2.6,0.3,3.9l184.5-108C785.9,199.9,785.8,199,785.7,198.4L785.7,198.4z"/>
			<path class="st16" d="M785.5,198.5L785.5,198.5c0-0.7-0.1-1.4-0.2-2l0,0c0,0,0,0,0,0c-0.1-0.7-0.2-1.4-0.4-2.1
				c-0.1-0.5-0.3-1-0.4-1.6c-0.1-0.2-0.1-0.4-0.2-0.5c0-0.1-0.1-0.2-0.1-0.3c-0.3-1-0.7-2-1.1-3c0-0.1-0.1-0.1-0.1-0.2
				c-0.8-1.9-1.8-3.7-2.8-5.4c-0.2-0.4-0.5-0.7-0.7-1.1c-1.1-1.7-2.4-3.3-3.7-4.8c0,0-0.1-0.1-0.1-0.1c-0.7-0.7-1.5-1.5-2.2-2.1
				c-0.1-0.1-0.2-0.2-0.3-0.3c-0.2-0.1-0.3-0.2-0.5-0.4c-0.3-0.3-0.7-0.6-1-0.8c-0.6-0.4-1.1-0.8-1.7-1.1l0,0
				c-0.1,0-0.1-0.1-0.1-0.1L584.7,280c1,0.6,2.9,1.9,3.8,2.7c0.2,0.1,0.3,0.2,0.5,0.4c0.9,0.8,1.8,1.6,2.7,2.5
				c1.4,1.4,2.6,3.1,3.7,4.8c0.2,0.4,0.5,0.7,0.7,1.1c1.1,1.7,2.1,3.5,2.9,5.4c0.5,1.2,0.9,2.3,1.3,3.5c0.1,0.2,0.1,0.4,0.1,0.5
				c0.3,1.2,0.6,2.4,0.8,3.6c0,0,0,0,0,0.1c0.2,1.3,0.3,2.6,0.3,3.9l184.1-107.9C785.7,200,785.7,199.1,785.5,198.5L785.5,198.5z"/>
			<path class="st17" d="M785.4,198.6L785.4,198.6c0-0.7-0.1-1.4-0.2-2l0,0c0,0,0,0,0,0c-0.1-0.7-0.2-1.4-0.4-2.1
				c-0.1-0.5-0.3-1-0.4-1.6c-0.1-0.2-0.1-0.4-0.2-0.5c0-0.1-0.1-0.2-0.1-0.3c-0.3-1-0.7-2-1.1-3c0-0.1-0.1-0.1-0.1-0.2
				c-0.8-1.9-1.8-3.7-2.8-5.4c-0.2-0.4-0.5-0.7-0.7-1.1c-1.1-1.7-2.4-3.3-3.7-4.8c0,0-0.1-0.1-0.1-0.1c-0.7-0.7-1.5-1.5-2.2-2.1
				c-0.1-0.1-0.2-0.2-0.3-0.3c-0.2-0.1-0.3-0.2-0.5-0.4c-0.3-0.3-0.7-0.6-1-0.8c-0.6-0.4-1.1-0.8-1.7-1.1l0,0
				c-0.1,0-0.1-0.1-0.1-0.1L584.8,279.9c1,0.6,3,2,3.9,2.8c0.2,0.1,0.3,0.2,0.5,0.4c0.9,0.8,1.8,1.6,2.7,2.5
				c1.4,1.4,2.6,3.1,3.7,4.8c0.2,0.4,0.5,0.7,0.7,1.1c1.1,1.7,2.1,3.5,2.8,5.4c0.5,1.2,0.9,2.3,1.3,3.5c0.1,0.2,0.1,0.4,0.1,0.5
				c0.3,1.2,0.6,2.4,0.8,3.6c0,0,0,0,0,0.1c0.2,1.3,0.3,2.6,0.3,3.9l183.7-107.8C785.5,200.1,785.5,199.2,785.4,198.6L785.4,198.6z"
				/>
			<path class="st18" d="M785.2,198.6L785.2,198.6c0-0.7-0.1-1.4-0.2-2l0,0c0,0,0,0,0,0c-0.1-0.7-0.2-1.4-0.4-2.1
				c-0.1-0.5-0.3-1-0.4-1.6c-0.1-0.2-0.1-0.4-0.2-0.5c0-0.1-0.1-0.2-0.1-0.3c-0.3-1-0.7-2-1.1-3c0-0.1-0.1-0.1-0.1-0.2
				c-0.8-1.9-1.8-3.7-2.8-5.4c-0.2-0.4-0.5-0.7-0.7-1.1c-1.1-1.7-2.4-3.3-3.7-4.8c0,0-0.1-0.1-0.1-0.1c-0.7-0.7-1.5-1.5-2.2-2.1
				c-0.1-0.1-0.2-0.2-0.3-0.3c-0.2-0.1-0.3-0.2-0.5-0.4c-0.3-0.3-0.7-0.6-1-0.8c-0.6-0.4-1.1-0.8-1.7-1.1l0,0c0,0-0.1-0.1-0.1-0.1
				L585,279.8c1,0.6,3.1,2.1,4,2.9c0.2,0.1,0.3,0.2,0.5,0.4c0.9,0.8,1.8,1.6,2.6,2.5c1.4,1.4,2.6,3.1,3.7,4.8
				c0.2,0.4,0.5,0.7,0.7,1.1c1.1,1.7,2.1,3.5,2.8,5.4c0.5,1.2,0.9,2.3,1.3,3.5c0.1,0.2,0.1,0.4,0.1,0.5c0.3,1.2,0.6,2.4,0.8,3.6
				c0,0,0,0,0,0.1c0.2,1.3,0.3,2.6,0.3,3.9l183.3-107.7C785.3,200.2,785.3,199.2,785.2,198.6L785.2,198.6z"/>
			<path class="st40" d="M785,198.7L785,198.7c0-0.7-0.1-1.4-0.2-2l0,0c0,0,0,0,0,0c-0.1-0.7-0.2-1.4-0.4-2.1
				c-0.1-0.5-0.3-1-0.4-1.6c-0.1-0.2-0.1-0.4-0.2-0.5c0-0.1-0.1-0.2-0.1-0.3c-0.3-1-0.7-2-1.1-3c0-0.1-0.1-0.1-0.1-0.2
				c-0.8-1.9-1.8-3.7-2.8-5.4c-0.2-0.4-0.5-0.7-0.7-1.1c-1.1-1.7-2.4-3.3-3.7-4.8c0,0-0.1-0.1-0.1-0.1c-0.7-0.7-1.5-1.5-2.2-2.1
				c-0.1-0.1-0.2-0.2-0.3-0.3c-0.2-0.1-0.3-0.2-0.5-0.4c-0.3-0.3-0.7-0.6-1-0.8c-0.6-0.4-1.1-0.8-1.7-1.1l0,0c0,0-0.1-0.1-0.1-0.1
				l-184.2,107c1,0.6,3.2,2.2,4.1,2.9c0.2,0.1,0.3,0.2,0.5,0.4c0.9,0.8,1.8,1.6,2.6,2.5c1.4,1.4,2.6,3.1,3.7,4.8
				c0.2,0.4,0.5,0.7,0.7,1.1c1.1,1.7,2,3.5,2.8,5.4c0.5,1.2,0.9,2.3,1.3,3.5c0.1,0.2,0.1,0.4,0.1,0.5c0.3,1.2,0.6,2.4,0.8,3.6
				c0,0,0,0,0,0.1c0.2,1.3,0.3,2.6,0.3,3.9l183-107.5C785.1,200.3,785.1,199.3,785,198.7L785,198.7z"/>
			<path class="st20" d="M784.8,198.7L784.8,198.7c0-0.7-0.1-1.4-0.2-2l0,0c0,0,0,0,0,0c-0.1-0.7-0.2-1.4-0.4-2.1
				c-0.1-0.5-0.3-1-0.4-1.6c-0.1-0.2-0.1-0.4-0.1-0.5c0-0.1-0.1-0.2-0.1-0.3c-0.3-1-0.7-2-1.1-3c0-0.1-0.1-0.1-0.1-0.2
				c-0.8-1.9-1.8-3.7-2.8-5.4c-0.2-0.4-0.5-0.7-0.7-1.1c-1.1-1.7-2.4-3.3-3.7-4.8c0,0-0.1-0.1-0.1-0.1c-0.7-0.7-1.5-1.5-2.2-2.1
				c-0.1-0.1-0.2-0.2-0.3-0.3c-0.2-0.1-0.3-0.2-0.5-0.4c-0.3-0.3-0.7-0.6-1-0.8c-0.6-0.4-1.1-0.8-1.7-1.1l0,0c0,0-0.1-0.1-0.1-0.1
				L585.2,279.7c1,0.6,3.3,2.3,4.2,3c0.2,0.1,0.3,0.2,0.5,0.4c0.9,0.8,1.8,1.6,2.6,2.5c1.3,1.4,2.6,3.1,3.7,4.8
				c0.2,0.4,0.5,0.7,0.7,1.1c1.1,1.7,2,3.5,2.8,5.4c0.5,1.2,0.9,2.3,1.3,3.5c0.1,0.2,0.1,0.4,0.1,0.5c0.3,1.2,0.6,2.4,0.8,3.6
				c0,0,0,0,0,0.1c0.2,1.3,0.3,2.6,0.3,3.9L785,201C785,200.4,785,199.3,784.8,198.7L784.8,198.7z"/>
			<path class="st21" d="M784.7,198.8L784.7,198.8c0-0.7-0.1-1.4-0.2-2l0,0c0,0,0,0,0,0c-0.1-0.7-0.2-1.4-0.4-2.1
				c-0.1-0.5-0.3-1-0.4-1.6c-0.1-0.2-0.1-0.4-0.1-0.5c0-0.1-0.1-0.2-0.1-0.3c-0.3-1-0.7-2-1.1-3c0-0.1-0.1-0.1-0.1-0.2
				c-0.8-1.9-1.7-3.7-2.8-5.4c-0.2-0.4-0.5-0.7-0.7-1.1c-1.1-1.7-2.4-3.3-3.7-4.8c0,0-0.1-0.1-0.1-0.1c-0.7-0.7-1.4-1.5-2.2-2.1
				c-0.1-0.1-0.2-0.2-0.3-0.3c-0.2-0.1-0.3-0.2-0.5-0.4c-0.3-0.3-0.7-0.6-1-0.8c-0.6-0.4-1.1-0.8-1.7-1.1l0,0c0,0-0.1-0.1-0.1-0.1
				L585.4,279.6c1,0.6,3.4,2.4,4.4,3.1c0.2,0.1,0.3,0.2,0.5,0.4c0.9,0.8,1.8,1.6,2.6,2.5c1.3,1.4,2.6,3.1,3.7,4.8
				c0.2,0.4,0.5,0.7,0.7,1.1c1.1,1.7,2,3.5,2.8,5.4c0.5,1.2,0.9,2.3,1.3,3.5c0.1,0.2,0.1,0.4,0.1,0.5c0.3,1.2,0.6,2.4,0.8,3.6
				c0,0,0,0,0,0.1c0.2,1.3,0.3,2.6,0.3,3.9l182.2-107.3C784.8,200.5,784.8,199.4,784.7,198.8L784.7,198.8z"/>
			<path class="st22" d="M784.5,198.9L784.5,198.9c0-0.7-0.1-1.4-0.2-2l0,0c0,0,0,0,0,0c-0.1-0.7-0.2-1.4-0.4-2.1
				c-0.1-0.5-0.3-1-0.4-1.6c-0.1-0.2-0.1-0.4-0.1-0.5c0-0.1-0.1-0.2-0.1-0.3c-0.3-1-0.7-2-1.1-3c0-0.1-0.1-0.1-0.1-0.2
				c-0.8-1.9-1.7-3.7-2.8-5.4c-0.2-0.4-0.5-0.7-0.7-1.1c-1.1-1.7-2.4-3.3-3.7-4.8c0,0-0.1-0.1-0.1-0.1c-0.7-0.7-1.4-1.5-2.2-2.1
				c-0.1-0.1-0.2-0.2-0.3-0.3c-0.2-0.1-0.3-0.2-0.5-0.4c-0.3-0.3-0.7-0.6-1-0.8c-0.6-0.4-1.1-0.8-1.7-1.1l0,0c0,0-0.1-0.1-0.1-0.1
				L585.5,279.5c1,0.6,3.5,2.4,4.5,3.2c0.2,0.1,0.3,0.2,0.5,0.4c0.9,0.8,1.8,1.6,2.6,2.5c1.3,1.4,2.6,3.1,3.7,4.8
				c0.2,0.4,0.5,0.7,0.7,1.1c1.1,1.7,2,3.5,2.8,5.4c0.5,1.2,0.9,2.3,1.3,3.5c0.1,0.2,0.1,0.4,0.1,0.5c0.3,1.2,0.6,2.4,0.8,3.6
				c0,0,0,0,0,0.1c0.2,1.3,0.3,2.6,0.3,3.9l181.8-107.2C784.6,200.6,784.6,199.5,784.5,198.9L784.5,198.9z"/>
			<path class="st23" d="M784.3,198.9L784.3,198.9c0-0.7-0.1-1.4-0.2-2l0,0c0,0,0,0,0,0c-0.1-0.7-0.2-1.4-0.4-2.1
				c-0.1-0.5-0.3-1-0.4-1.5c-0.1-0.2-0.1-0.4-0.1-0.5c0-0.1-0.1-0.2-0.1-0.3c-0.3-1-0.7-2-1.1-3c0-0.1-0.1-0.1-0.1-0.2
				c-0.8-1.9-1.7-3.7-2.8-5.4c-0.2-0.4-0.5-0.7-0.7-1.1c-1.1-1.7-2.3-3.3-3.7-4.8c0,0-0.1-0.1-0.1-0.1c-0.7-0.7-1.4-1.5-2.2-2.1
				c-0.1-0.1-0.2-0.2-0.3-0.3c-0.2-0.1-0.3-0.2-0.5-0.4c-0.3-0.3-0.7-0.6-1-0.8c-0.6-0.4-1.1-0.8-1.7-1.1l0,0c0,0-0.1-0.1-0.1-0.1
				L585.6,279.4c1,0.6,3.6,2.5,4.6,3.3c0.2,0.1,0.3,0.2,0.5,0.4c0.9,0.8,1.8,1.6,2.6,2.5c1.3,1.4,2.6,3.1,3.7,4.8
				c0.2,0.4,0.5,0.7,0.7,1.1c1.1,1.7,2,3.5,2.8,5.4c0.5,1.2,0.9,2.3,1.3,3.5c0.1,0.2,0.1,0.4,0.1,0.5c0.3,1.2,0.6,2.4,0.8,3.6
				c0,0,0,0,0,0.1c0.2,1.3,0.3,2.6,0.3,3.9l181.4-107.1C784.4,200.7,784.4,199.5,784.3,198.9L784.3,198.9z"/>
			<path class="st24" d="M784.1,199L784.1,199c0-0.7-0.1-1.4-0.2-2l0,0c0,0,0,0,0,0c-0.1-0.7-0.2-1.4-0.4-2.1
				c-0.1-0.5-0.3-1-0.4-1.5c-0.1-0.2-0.1-0.4-0.1-0.5c0-0.1-0.1-0.2-0.1-0.3c-0.3-1-0.7-2-1.1-3c0-0.1-0.1-0.1-0.1-0.2
				c-0.8-1.9-1.7-3.7-2.8-5.4c-0.2-0.4-0.5-0.7-0.7-1.1c-1.1-1.7-2.3-3.3-3.7-4.7c0,0-0.1-0.1-0.1-0.1c-0.7-0.7-1.4-1.5-2.2-2.1
				c-0.1-0.1-0.2-0.2-0.3-0.3c-0.2-0.1-0.3-0.2-0.5-0.4c-0.3-0.3-0.7-0.6-1-0.8c-0.6-0.4-1.1-0.8-1.7-1.1l0,0c0,0-0.1-0.1-0.1-0.1
				L585.7,279.4c1,0.6,3.7,2.6,4.7,3.4c0.2,0.1,0.3,0.2,0.5,0.4c0.9,0.8,1.8,1.6,2.6,2.5c1.3,1.4,2.6,3.1,3.7,4.7
				c0.2,0.4,0.5,0.7,0.7,1.1c1.1,1.7,2,3.5,2.8,5.4c0.5,1.2,0.9,2.3,1.3,3.5c0.1,0.2,0.1,0.4,0.1,0.5c0.3,1.2,0.6,2.4,0.8,3.6
				c0,0,0,0,0,0.1c0.2,1.3,0.3,2.6,0.3,3.9l181-107C784.2,200.8,784.2,199.6,784.1,199L784.1,199z"/>
			<path class="st25" d="M783.9,199.1L783.9,199.1c0-0.7-0.1-1.4-0.2-2l0,0c0,0,0,0,0,0c-0.1-0.7-0.2-1.4-0.4-2.1
				c-0.1-0.5-0.3-1-0.4-1.5c-0.1-0.2-0.1-0.4-0.1-0.5c0-0.1-0.1-0.2-0.1-0.3c-0.3-1-0.7-2-1.1-3c0-0.1-0.1-0.1-0.1-0.2
				c-0.8-1.9-1.7-3.7-2.8-5.4c-0.2-0.4-0.5-0.7-0.7-1.1c-1.1-1.7-2.3-3.3-3.7-4.7c0,0-0.1-0.1-0.1-0.1c-0.7-0.7-1.4-1.4-2.2-2.1
				c-0.1-0.1-0.2-0.2-0.3-0.3c-0.1-0.1-0.3-0.2-0.5-0.4c-0.3-0.3-0.7-0.6-1-0.8c-0.6-0.4-1.1-0.8-1.7-1.1l0,0c0,0-0.1-0.1-0.1-0.1
				L585.9,279.3c1,0.6,3.8,2.7,4.8,3.4c0.2,0.1,0.3,0.2,0.5,0.4c0.9,0.8,1.8,1.6,2.6,2.5c1.3,1.4,2.5,3.1,3.7,4.7
				c0.2,0.4,0.5,0.7,0.7,1.1c1.1,1.7,2,3.5,2.8,5.4c0.5,1.2,0.9,2.3,1.3,3.5c0.1,0.2,0.1,0.4,0.1,0.5c0.3,1.2,0.6,2.4,0.8,3.6
				c0,0,0,0,0,0.1c0.2,1.3,0.3,2.6,0.3,3.9l180.6-106.9C784.1,200.9,784.1,199.7,783.9,199.1L783.9,199.1z"/>
			<path class="st26" d="M783.8,199.1L783.8,199.1c0-0.7-0.1-1.4-0.2-2l0,0c0,0,0,0,0,0c-0.1-0.7-0.2-1.4-0.4-2.1
				c-0.1-0.5-0.3-1-0.4-1.5c-0.1-0.2-0.1-0.4-0.1-0.5c0-0.1-0.1-0.2-0.1-0.3c-0.3-1-0.7-2-1.1-3c0-0.1-0.1-0.1-0.1-0.2
				c-0.8-1.9-1.7-3.6-2.8-5.4c-0.2-0.4-0.5-0.7-0.7-1.1c-1.1-1.7-2.3-3.3-3.7-4.7c0,0-0.1-0.1-0.1-0.1c-0.7-0.7-1.4-1.4-2.2-2.1
				c-0.1-0.1-0.2-0.2-0.3-0.3c-0.1-0.1-0.3-0.2-0.5-0.4c-0.3-0.3-0.7-0.6-1-0.8c-0.6-0.4-1.1-0.8-1.7-1.1l0,0c0,0-0.1-0.1-0.1-0.1
				L586,279.2c1,0.6,3.9,2.8,4.9,3.5c0.2,0.1,0.3,0.2,0.5,0.4c0.9,0.8,1.8,1.6,2.6,2.5c1.3,1.4,2.5,3,3.7,4.7
				c0.2,0.4,0.5,0.7,0.7,1.1c1.1,1.7,2,3.5,2.8,5.4c0.5,1.2,0.9,2.3,1.3,3.5c0.1,0.2,0.1,0.4,0.1,0.5c0.3,1.2,0.6,2.4,0.8,3.6
				c0,0,0,0,0,0.1c0.2,1.3,0.3,2.6,0.3,3.9l180.2-106.7C783.9,201,783.9,199.7,783.8,199.1L783.8,199.1z"/>
			<path class="st27" d="M783.6,199.2L783.6,199.2c0-0.7-0.1-1.4-0.2-2l0,0c0,0,0,0,0,0c-0.1-0.7-0.2-1.4-0.4-2.1
				c-0.1-0.5-0.3-1-0.4-1.5c-0.1-0.2-0.1-0.4-0.1-0.5c0-0.1-0.1-0.2-0.1-0.3c-0.3-1-0.7-2-1.1-3c0-0.1-0.1-0.1-0.1-0.2
				c-0.8-1.9-1.7-3.6-2.8-5.4c-0.2-0.4-0.5-0.7-0.7-1.1c-1.1-1.7-2.3-3.3-3.7-4.7c0,0-0.1-0.1-0.1-0.1c-0.7-0.7-1.4-1.4-2.2-2.1
				c-0.1-0.1-0.2-0.2-0.3-0.3c-0.1-0.1-0.3-0.2-0.5-0.4c-0.3-0.3-0.7-0.6-1-0.8c-0.6-0.4-1.1-0.8-1.7-1.1l0,0c0,0-0.1-0.1-0.1-0.1
				l-182,105.8c1,0.6,4.1,2.8,5,3.6c0.1,0.1,0.3,0.2,0.5,0.4c0.9,0.8,1.8,1.6,2.6,2.5c1.3,1.4,2.5,3,3.7,4.7
				c0.2,0.4,0.5,0.7,0.7,1.1c1.1,1.7,2,3.5,2.8,5.4c0.5,1.2,0.9,2.3,1.3,3.5c0.1,0.2,0.1,0.4,0.1,0.5c0.3,1.2,0.6,2.4,0.8,3.6
				c0,0,0,0,0,0.1c0.2,1.3,0.3,2.6,0.3,3.9l179.9-106.6C783.7,201.1,783.7,199.8,783.6,199.2L783.6,199.2z"/>
			<path class="st28" d="M783.4,199.3L783.4,199.3c0-0.7-0.1-1.4-0.2-2l0,0c0,0,0,0,0,0c-0.1-0.7-0.2-1.4-0.4-2.1
				c-0.1-0.5-0.3-1-0.4-1.5c-0.1-0.2-0.1-0.4-0.1-0.5c0-0.1-0.1-0.2-0.1-0.3c-0.3-1-0.7-2-1.1-3c0-0.1-0.1-0.1-0.1-0.2
				c-0.8-1.9-1.7-3.6-2.8-5.4c-0.2-0.4-0.5-0.7-0.7-1.1c-1.1-1.7-2.3-3.3-3.6-4.7c0,0-0.1-0.1-0.1-0.1c-0.7-0.7-1.4-1.4-2.2-2.1
				c-0.1-0.1-0.2-0.2-0.3-0.3c-0.1-0.1-0.3-0.2-0.5-0.4c-0.3-0.3-0.7-0.6-1-0.8c-0.6-0.4-1.1-0.8-1.7-1.1l0,0c0,0-0.1-0.1-0.1-0.1
				L586.3,279.1c1,0.6,4.2,2.9,5.1,3.7c0.1,0.1,0.3,0.2,0.5,0.4c0.9,0.8,1.8,1.6,2.6,2.5c1.3,1.4,2.5,3,3.6,4.7
				c0.2,0.4,0.5,0.7,0.7,1.1c1.1,1.7,2,3.5,2.8,5.4c0.5,1.1,0.9,2.3,1.3,3.5c0.1,0.2,0.1,0.4,0.1,0.5c0.3,1.2,0.6,2.4,0.8,3.6
				c0,0,0,0,0,0.1c0.2,1.3,0.3,2.6,0.3,3.9l179.5-106.5C783.5,201.2,783.5,199.9,783.4,199.3L783.4,199.3z"/>
			<path class="st29" d="M783.2,199.3L783.2,199.3c0-0.7-0.1-1.4-0.2-2l0,0c0,0,0,0,0,0c-0.1-0.7-0.2-1.4-0.4-2.1
				c-0.1-0.5-0.3-1-0.4-1.5c-0.1-0.2-0.1-0.4-0.1-0.5c0-0.1-0.1-0.2-0.1-0.3c-0.3-1-0.7-2-1.1-3c0-0.1-0.1-0.1-0.1-0.2
				c-0.8-1.9-1.7-3.6-2.8-5.4c-0.2-0.4-0.5-0.7-0.7-1.1c-1.1-1.7-2.3-3.3-3.6-4.7c0,0-0.1-0.1-0.1-0.1c-0.7-0.7-1.4-1.4-2.2-2.1
				c-0.1-0.1-0.2-0.2-0.3-0.3c-0.1-0.1-0.3-0.2-0.5-0.4c-0.3-0.3-0.7-0.6-1-0.8c-0.6-0.4-1.1-0.8-1.7-1.1l0,0c0,0-0.1-0.1-0.1-0.1
				L586.4,279c1,0.6,4.3,3,5.2,3.8c0.1,0.1,0.3,0.2,0.5,0.4c0.9,0.8,1.8,1.6,2.6,2.5c1.3,1.4,2.5,3,3.6,4.7c0.2,0.4,0.5,0.7,0.7,1.1
				c1.1,1.7,2,3.5,2.8,5.4c0.5,1.1,0.9,2.3,1.2,3.5c0.1,0.2,0.1,0.4,0.1,0.5c0.3,1.2,0.6,2.4,0.8,3.6c0,0,0,0,0,0.1
				c0.2,1.3,0.3,2.6,0.3,3.9l179.1-106.4C783.3,201.3,783.4,199.9,783.2,199.3L783.2,199.3z"/>
			<path class="st30" d="M783.1,199.4L783.1,199.4c0-0.7-0.1-1.4-0.2-2l0,0c0,0,0,0,0,0c-0.1-0.7-0.2-1.4-0.4-2.1
				c-0.1-0.5-0.3-1-0.4-1.5c-0.1-0.2-0.1-0.4-0.1-0.5c0-0.1-0.1-0.2-0.1-0.3c-0.3-1-0.7-2-1.1-3c0-0.1-0.1-0.1-0.1-0.2
				c-0.8-1.9-1.7-3.6-2.8-5.4c-0.2-0.4-0.5-0.7-0.7-1.1c-1.1-1.7-2.3-3.3-3.6-4.7c0,0-0.1-0.1-0.1-0.1c-0.7-0.7-1.4-1.4-2.2-2.1
				c-0.1-0.1-0.2-0.2-0.3-0.3c-0.1-0.1-0.3-0.2-0.4-0.4c-0.3-0.3-0.7-0.6-1-0.8c-0.6-0.4-1.1-0.8-1.7-1.1l0,0c0,0-0.1-0.1-0.1-0.1
				L586.5,278.9c1,0.6,4.4,3.1,5.3,3.8c0.1,0.1,0.3,0.2,0.4,0.4c0.9,0.8,1.8,1.6,2.6,2.5c1.3,1.4,2.5,3,3.6,4.7
				c0.2,0.4,0.5,0.7,0.7,1.1c1,1.7,2,3.5,2.8,5.4c0.5,1.1,0.9,2.3,1.2,3.5c0.1,0.2,0.1,0.4,0.1,0.5c0.3,1.2,0.6,2.4,0.8,3.6
				c0,0,0,0,0,0.1c0.2,1.3,0.3,2.6,0.3,3.9L783.2,202C783.2,201.4,783.2,200,783.1,199.4L783.1,199.4z"/>
			<path class="st31" d="M782.9,199.5L782.9,199.5c0-0.7-0.1-1.4-0.2-2l0,0c0,0,0,0,0,0c-0.1-0.7-0.2-1.4-0.4-2.1
				c-0.1-0.5-0.3-1-0.4-1.5c-0.1-0.2-0.1-0.4-0.1-0.5c0-0.1-0.1-0.2-0.1-0.3c-0.3-1-0.7-2-1.1-3c0-0.1-0.1-0.1-0.1-0.2
				c-0.8-1.9-1.7-3.6-2.8-5.4c-0.2-0.4-0.5-0.7-0.7-1.1c-1.1-1.7-2.3-3.3-3.6-4.7c0,0-0.1-0.1-0.1-0.1c-0.7-0.7-1.4-1.4-2.2-2.1
				c-0.1-0.1-0.2-0.2-0.3-0.3c-0.1-0.1-0.3-0.2-0.4-0.4c-0.3-0.3-0.7-0.6-1-0.8c-0.6-0.4-1.1-0.8-1.7-1.1l0,0c0,0-0.1-0.1-0.1-0.1
				L586.7,278.8c1,0.6,4.5,3.2,5.4,3.9c0.1,0.1,0.3,0.2,0.4,0.4c0.9,0.8,1.7,1.6,2.6,2.5c1.3,1.4,2.5,3,3.6,4.7
				c0.2,0.4,0.5,0.7,0.7,1.1c1,1.7,2,3.5,2.8,5.4c0.5,1.1,0.9,2.3,1.2,3.5c0.1,0.2,0.1,0.4,0.1,0.5c0.3,1.2,0.6,2.4,0.8,3.6
				c0,0,0,0,0,0.1c0.2,1.3,0.3,2.6,0.3,3.9L783,202.1C783,201.5,783,200,782.9,199.5L782.9,199.5z"/>
			<path class="st32" d="M782.7,199.5L782.7,199.5c0-0.7-0.1-1.4-0.2-2l0,0c0,0,0,0,0,0c-0.1-0.7-0.2-1.4-0.4-2.1
				c-0.1-0.5-0.3-1-0.4-1.5c-0.1-0.2-0.1-0.4-0.1-0.5c0-0.1-0.1-0.2-0.1-0.3c-0.3-1-0.7-2-1.1-3c0-0.1-0.1-0.1-0.1-0.2
				c-0.8-1.8-1.7-3.6-2.8-5.4c-0.2-0.4-0.5-0.7-0.7-1.1c-1.1-1.7-2.3-3.3-3.6-4.7c0,0-0.1-0.1-0.1-0.1c-0.7-0.7-1.4-1.4-2.1-2.1
				c-0.1-0.1-0.2-0.2-0.3-0.3c-0.1-0.1-0.3-0.2-0.4-0.4c-0.3-0.3-0.7-0.6-1-0.8c-0.5-0.4-1.1-0.8-1.7-1.1l0,0c0,0-0.1-0.1-0.1-0.1
				l-180.6,105c1,0.6,4.6,3.2,5.5,4c0.1,0.1,0.3,0.2,0.4,0.4c0.9,0.8,1.7,1.6,2.6,2.5c1.3,1.4,2.5,3,3.6,4.7
				c0.2,0.4,0.5,0.7,0.7,1.1c1,1.7,2,3.5,2.8,5.4c0.5,1.1,0.9,2.3,1.2,3.5c0.1,0.2,0.1,0.4,0.1,0.5c0.3,1.2,0.6,2.4,0.8,3.6
				c0,0,0,0,0,0.1c0.2,1.3,0.3,2.6,0.3,3.9l177.9-106.1C782.8,201.6,782.8,200.1,782.7,199.5L782.7,199.5z"/>
			<path class="st33" d="M782.5,199.6L782.5,199.6c0-0.7-0.1-1.4-0.2-2l0,0c0,0,0,0,0,0c-0.1-0.7-0.2-1.4-0.4-2.1
				c-0.1-0.5-0.3-1-0.4-1.5c-0.1-0.2-0.1-0.4-0.1-0.5c0-0.1-0.1-0.2-0.1-0.3c-0.3-1-0.7-2-1.1-3c0-0.1-0.1-0.1-0.1-0.2
				c-0.8-1.8-1.7-3.6-2.7-5.4c-0.2-0.4-0.5-0.7-0.7-1.1c-1.1-1.7-2.3-3.3-3.6-4.7c0,0-0.1-0.1-0.1-0.1c-0.7-0.7-1.4-1.4-2.1-2.1
				c-0.1-0.1-0.2-0.2-0.3-0.3c-0.1-0.1-0.3-0.2-0.4-0.4c-0.3-0.3-0.7-0.6-1-0.8c-0.5-0.4-1.1-0.8-1.7-1.1l0,0c0,0-0.1-0.1-0.1-0.1
				L586.9,278.7c1,0.6,4.7,3.3,5.6,4.1c0.1,0.1,0.3,0.2,0.4,0.4c0.9,0.8,1.7,1.6,2.6,2.5c1.3,1.4,2.5,3,3.6,4.7
				c0.2,0.4,0.5,0.7,0.7,1.1c1,1.7,2,3.5,2.7,5.4c0.5,1.1,0.9,2.3,1.2,3.5c0.1,0.2,0.1,0.4,0.1,0.5c0.3,1.2,0.6,2.4,0.8,3.6
				c0,0,0,0,0,0.1c0.2,1.3,0.3,2.6,0.3,3.9l177.5-105.9C782.6,201.7,782.6,200.2,782.5,199.6L782.5,199.6z"/>
			<path class="st34" d="M782.3,199.7L782.3,199.7c0-0.7-0.1-1.4-0.2-2l0,0c0,0,0,0,0,0c-0.1-0.7-0.2-1.4-0.4-2.1
				c-0.1-0.5-0.3-1-0.4-1.5c-0.1-0.2-0.1-0.4-0.1-0.5c0-0.1-0.1-0.2-0.1-0.3c-0.3-1-0.7-2-1.1-3c0-0.1-0.1-0.1-0.1-0.2
				c-0.8-1.8-1.7-3.6-2.7-5.3c-0.2-0.4-0.5-0.7-0.7-1.1c-1.1-1.7-2.3-3.3-3.6-4.7c0,0-0.1-0.1-0.1-0.1c-0.7-0.7-1.4-1.4-2.1-2.1
				c-0.1-0.1-0.2-0.2-0.3-0.3c-0.1-0.1-0.3-0.2-0.4-0.4c-0.3-0.3-0.7-0.6-1-0.8c-0.5-0.4-1.1-0.8-1.7-1.1l0,0c0,0-0.1-0.1-0.1-0.1
				L587,278.6c1,0.6,4.8,3.4,5.7,4.2c0.1,0.1,0.3,0.2,0.4,0.4c0.9,0.8,1.7,1.6,2.6,2.5c1.3,1.4,2.5,3,3.6,4.7
				c0.2,0.4,0.5,0.7,0.7,1.1c1,1.7,2,3.5,2.7,5.3c0.5,1.1,0.9,2.3,1.2,3.5c0.1,0.2,0.1,0.4,0.1,0.5c0.3,1.2,0.6,2.4,0.8,3.6
				c0,0,0,0,0,0.1c0.2,1.3,0.3,2.6,0.3,3.9l177.1-105.8C782.4,201.8,782.5,200.2,782.3,199.7L782.3,199.7z"/>
			<path class="st35" d="M782.2,199.7L782.2,199.7c0-0.7-0.1-1.4-0.2-2l0,0c0,0,0,0,0,0c-0.1-0.7-0.2-1.4-0.4-2.1
				c-0.1-0.5-0.3-1-0.4-1.5c-0.1-0.2-0.1-0.4-0.1-0.5c0-0.1-0.1-0.2-0.1-0.3c-0.3-1-0.7-2-1.1-3c0-0.1-0.1-0.1-0.1-0.2
				c-0.8-1.8-1.7-3.6-2.7-5.3c-0.2-0.4-0.5-0.7-0.7-1.1c-1.1-1.7-2.3-3.3-3.6-4.7c0,0-0.1-0.1-0.1-0.1c-0.7-0.7-1.4-1.4-2.1-2.1
				c-0.1-0.1-0.2-0.2-0.3-0.3c-0.1-0.1-0.3-0.2-0.4-0.4c-0.3-0.3-0.7-0.6-1-0.8c-0.5-0.4-1.1-0.8-1.7-1.1l0,0c0,0-0.1-0.1-0.1-0.1
				L587.2,278.5c1,0.6,4.9,3.5,5.8,4.2c0.1,0.1,0.3,0.2,0.4,0.4c0.9,0.8,1.7,1.6,2.6,2.5c1.3,1.4,2.5,3,3.6,4.7
				c0.2,0.4,0.5,0.7,0.7,1.1c1,1.7,2,3.5,2.7,5.3c0.5,1.1,0.9,2.3,1.2,3.5c0.1,0.2,0.1,0.4,0.1,0.5c0.3,1.2,0.6,2.4,0.8,3.6
				c0,0,0,0,0,0.1c0.2,1.3,0.3,2.6,0.3,3.9l176.8-105.7C782.3,201.9,782.3,200.3,782.2,199.7L782.2,199.7z"/>
			<path class="st36" d="M782,199.8L782,199.8c0-0.7-0.1-1.4-0.2-2l0,0c0,0,0,0,0,0c-0.1-0.7-0.2-1.4-0.4-2.1
				c-0.1-0.5-0.3-1-0.4-1.5c-0.1-0.2-0.1-0.4-0.1-0.5c0-0.1-0.1-0.2-0.1-0.3c-0.3-1-0.7-2-1.1-3c0-0.1-0.1-0.1-0.1-0.2
				c-0.8-1.8-1.7-3.6-2.7-5.3c-0.2-0.4-0.5-0.7-0.7-1.1c-1.1-1.7-2.3-3.3-3.6-4.7c0,0-0.1-0.1-0.1-0.1c-0.7-0.7-1.4-1.4-2.1-2.1
				c-0.1-0.1-0.2-0.2-0.3-0.3c-0.1-0.1-0.3-0.2-0.4-0.4c-0.3-0.3-0.7-0.6-1-0.8c-0.5-0.4-1.1-0.8-1.7-1.1l0,0c0,0-0.1-0.1-0.1-0.1
				L587.3,278.4c1,0.6,5,3.6,5.9,4.3c0.1,0.1,0.3,0.2,0.4,0.4c0.9,0.8,1.7,1.6,2.5,2.5c1.3,1.4,2.5,3,3.6,4.7
				c0.2,0.4,0.5,0.7,0.7,1.1c1,1.7,2,3.5,2.7,5.3c0.5,1.1,0.9,2.3,1.2,3.5c0.1,0.2,0.1,0.4,0.1,0.5c0.3,1.2,0.6,2.4,0.8,3.6
				c0,0,0,0,0,0.1c0.2,1.3,0.3,2.6,0.3,3.9l176.4-105.6C782.1,202,782.1,200.4,782,199.8L782,199.8z"/>
			<path class="st37" d="M781.8,199.8L781.8,199.8c0-0.7-0.1-1.4-0.2-2l0,0c0,0,0,0,0,0c-0.1-0.7-0.2-1.4-0.4-2.1
				c-0.1-0.5-0.3-1-0.4-1.5c-0.1-0.2-0.1-0.4-0.1-0.5c0-0.1-0.1-0.2-0.1-0.3c-0.3-1-0.7-2-1-3c0-0.1-0.1-0.1-0.1-0.2
				c-0.8-1.8-1.7-3.6-2.7-5.3c-0.2-0.4-0.5-0.7-0.7-1.1c-1.1-1.7-2.3-3.3-3.6-4.7c0,0-0.1-0.1-0.1-0.1c-0.7-0.7-1.4-1.4-2.1-2.1
				c-0.1-0.1-0.2-0.2-0.3-0.3c-0.1-0.1-0.3-0.2-0.4-0.4c-0.3-0.3-0.7-0.6-1-0.8c-0.5-0.4-1.1-0.8-1.7-1.1l0,0c0,0-0.1-0.1-0.1-0.1
				L587.4,278.4c1,0.6,5.1,3.6,6,4.4c0.1,0.1,0.3,0.2,0.4,0.4c0.9,0.8,1.7,1.6,2.5,2.5c1.3,1.4,2.5,3,3.6,4.7
				c0.2,0.4,0.5,0.7,0.7,1.1c1,1.7,2,3.5,2.7,5.3c0.5,1.1,0.9,2.3,1.2,3.5c0.1,0.2,0.1,0.4,0.1,0.5c0.3,1.2,0.6,2.4,0.8,3.6
				c0,0,0,0,0,0.1c0.2,1.3,0.3,2.6,0.3,3.9l176-105.5C781.9,202.1,781.9,200.4,781.8,199.8L781.8,199.8z"/>
			<g>
				<path class="st1" d="M781.6,199.9L781.6,199.9c0-0.7-0.1-1.4-0.2-2l0,0c0,0,0,0,0,0c-0.1-0.7-0.2-1.4-0.4-2.1
					c-0.1-0.5-0.3-1-0.4-1.5c-0.1-0.2-0.1-0.4-0.1-0.5c0-0.1-0.1-0.2-0.1-0.3c-0.3-1-0.7-2-1-3c0-0.1-0.1-0.1-0.1-0.2
					c-0.8-1.8-1.7-3.6-2.7-5.3c-0.2-0.4-0.5-0.7-0.7-1.1c-1.1-1.7-2.3-3.3-3.6-4.7c0,0-0.1-0.1-0.1-0.1c-0.7-0.7-1.4-1.4-2.1-2.1
					c-0.1-0.1-0.2-0.2-0.3-0.3c-0.1-0.1-0.3-0.2-0.4-0.4c-0.3-0.3-0.7-0.6-1-0.8c-0.5-0.4-1.1-0.8-1.6-1.1l0,0c0,0-0.1-0.1-0.1-0.1
					l-179,104c1,0.6,5.2,3.7,6.1,4.5c0.1,0.1,0.3,0.2,0.4,0.4c0.9,0.8,1.7,1.6,2.5,2.5c1.3,1.4,2.5,3,3.6,4.7
					c0.2,0.4,0.5,0.7,0.7,1.1c1,1.7,2,3.5,2.7,5.3c0.5,1.1,0.9,2.3,1.2,3.5c0.1,0.2,0.1,0.4,0.1,0.5c0.3,1.2,0.6,2.4,0.8,3.6
					c0,0,0,0,0,0.1c0.2,1.3,0.3,2.6,0.3,3.9l175.6-105.4C781.7,202.2,781.8,200.5,781.6,199.9L781.6,199.9z"/>
			</g>
		</g>
		<g>
			<polygon class="st41" points="628.7,323.4 758.1,248.2 758.2,222.4 628.8,297.6 			"/>
		</g>
		<g>
			<path class="st42" d="M583.7,280.6l-121.5-70.2l-0.2,69L599.8,359l0.1-50.3C600.3,296.1,592.6,285.8,583.7,280.6z"/>
		</g>
	</g>
	<g>
		<g class="st43">
			<g>
				<polygon class="st44" points="628.9,312.5 693.6,350.8 693.7,346.1 628.9,307.8 				"/>
			</g>
			<g>
				<polygon class="st45" points="693.6,350.8 815.5,280 815.6,275.3 693.7,346.1 				"/>
			</g>
		</g>
	</g>
	<g>
		<g>
			<polygon class="st41" points="494.4,212.5 526.3,230.8 685.4,138.4 653.5,120.1 			"/>
		</g>
	</g>
	<g>
		<polygon class="st46" points="543.8,241.6 575.7,259.9 734.8,167.4 702.9,149.2 		"/>
	</g>
	<g>
		<g class="st43">
			<g>
				<polygon class="st44" points="480.1,119.5 508.7,220.6 514.9,224.5 484.7,120.1 				"/>
			</g>
			<g>
				<polygon class="st47" points="480.1,119.5 484.7,120.1 629.2,36 624.7,35.4 				"/>
			</g>
		</g>
	</g>
	<polygon class="st48" points="628.8,307.8 693.7,346.1 815.6,275.3 750.7,236.9 	"/>
	<g>
		<polygon class="st49" points="543.8,241.6 575.7,259.9 635,225.4 603.2,207.1 		"/>
	</g>
	<g>
		<polygon class="st49" points="604.8,206.1 636.7,224.4 645.3,219.4 613.4,201.1 		"/>
	</g>
	<g>
		<polygon class="st48" points="484.7,120.1 510.9,211.4 655.5,127.4 629.2,36 		"/>
		<polygon class="st50" points="510.9,211.4 514.7,224.4 526.3,230.8 662.5,151.7 655.5,127.4 		"/>
	</g>
	<g>
		<g class="st43">
			<g>
				<polygon class="st51" points="504,131.1 531.5,227.8 534.7,226.5 507.7,131.6 				"/>
			</g>
			<g>
				<polygon class="st52" points="504,131.1 507.7,131.6 627.5,62 623.8,61.5 				"/>
			</g>
		</g>
	</g>
	<polygon class="st1" points="507.7,131.6 534.6,226.2 655.1,156 627.5,62 	"/>
	<polygon class="st50" points="518.8,208.9 525,205.3 504,131.1 	"/>
	<g>
		<path class="st1" d="M805.1,272.3l-65.6-39.1l-111,64.6l65.4,42.5C694,340.2,804.9,272.2,805.1,272.3z"/>
		<path class="st51" d="M805.1,272.2l-65-39l-0.1,0.1l65,39c-0.5,0.3-3.2,1.8-17.4,10.5c-9.4,5.7-22.6,13.8-38.2,23.4
			c-23.2,14.2-54.3,33.3-55.5,34.1l-65.2-42.2v-0.3l65.1,42.6l0,0l0,0c0.2-0.2,28.2-17.3,55.4-34c35-21.5,55.4-33.9,55.7-34
			L805.1,272.2L805.1,272.2z"/>
		<g>
			<g id="XMLID_725_">
				<g class="st43">
					<g>
						<polygon class="st53" points="756.4,276 758.8,277.3 690.9,316.6 688.4,315.1 						"/>
					</g>
					<g>
						<polygon class="st53" points="771.7,271.9 774.2,273.2 695.3,319.3 692.7,317.8 						"/>
					</g>
					<g>
						<polygon class="st53" points="775.9,274.2 778.4,275.5 699.7,322 697.1,320.4 						"/>
					</g>
				</g>
			</g>
			<g id="XMLID_622_">
				<g id="XMLID_723_">
					<path id="XMLID_724_" class="st54" d="M711.6,274.4c-4.7,4-11.9,6.7-18.7,9.2c-1.5,0.6-3.1,1.2-4.6,1.7c-1,0.4-1.9,0.8-2.9,1.2
						c-2.2,0.9-4.4,1.8-6.7,2.6c-11.4,3.9-12.9,10.6-12.9,10.7l-0.2,0c0-0.1,1.4-6.9,13-10.8c2.3-0.8,4.5-1.7,6.7-2.6
						c0.9-0.4,1.9-0.8,2.9-1.2c1.5-0.6,3.1-1.2,4.6-1.7c8.5-3.1,17.4-6.5,21.6-12.4c1.1-1.5,1.4-3.5,0.8-5c-0.8-2-2.3-5-3.8-6.6
						c0,0-1-0.9-1.6-2.3c-0.6-1.3-0.9-3.1,0.4-5c1.8-2.4,6-4.3,12.7-5.5l0,0.1c-6.6,1.2-10.8,3-12.6,5.4c-1.3,1.8-1,3.7-0.4,4.9
						c0.6,1.3,1.5,2.3,1.5,2.3c1.4,1.6,3,4.6,3.8,6.6c0.6,1.6,0.3,3.5-0.8,5.1C713.8,272.3,712.8,273.4,711.6,274.4z"/>
				</g>
				<g id="XMLID_721_">
					<polygon id="XMLID_722_" class="st54" points="673.6,307.1 672.7,307.7 672.5,307.5 673.4,307 					"/>
				</g>
				<g id="XMLID_719_">
					<polygon id="XMLID_720_" class="st54" points="691.4,300.5 691.2,300.6 690.2,300 690.4,299.9 					"/>
				</g>
				<g id="XMLID_716_">
					<path id="XMLID_717_" class="st54" d="M672.2,308.3l-0.1,0.1l-0.7-0.5c0,0,0,0.1,0,0.1c0,0,0,0.1-0.1,0.1l-0.1-0.1
						c0-0.1,0.1-0.1,0.1-0.2c0-0.1,0-0.1,0-0.1l0.1,0L672.2,308.3z"/>
				</g>
				<g id="XMLID_714_">
					<polygon id="XMLID_715_" class="st54" points="670.7,305.2 669.8,305.8 669.6,305.7 670.5,305.1 					"/>
				</g>
				<g id="XMLID_712_">
					<polygon id="XMLID_713_" class="st54" points="667.8,303.4 666.9,303.9 666.7,303.8 667.6,303.2 					"/>
				</g>
				<g id="XMLID_710_">
					<polygon id="XMLID_711_" class="st54" points="664.9,301.5 664,302.1 663.8,302 664.7,301.4 					"/>
				</g>
				<g id="XMLID_708_">
					<polygon id="XMLID_709_" class="st54" points="662,299.7 661.1,300.3 661,300.2 661.8,299.6 					"/>
				</g>
				<g id="XMLID_706_">
					<polygon id="XMLID_707_" class="st54" points="659.2,297.9 658.3,298.5 658.1,298.4 659,297.8 					"/>
				</g>
				<g id="XMLID_704_">
					<polygon id="XMLID_705_" class="st54" points="656.4,296.1 655.5,296.7 655.3,296.6 656.2,296 					"/>
				</g>
				<g id="XMLID_702_">
					<polygon id="XMLID_703_" class="st54" points="653.6,294.3 652.7,294.9 652.5,294.8 653.4,294.2 					"/>
				</g>
				<g id="XMLID_700_">
					<polygon id="XMLID_701_" class="st54" points="650.8,292.6 649.9,293.1 649.8,293 650.6,292.5 					"/>
				</g>
				<g id="XMLID_698_">
					<polygon id="XMLID_699_" class="st54" points="705.6,291.6 705.4,291.7 704.4,291.1 704.6,291 					"/>
				</g>
				<g id="XMLID_696_">
					<polygon id="XMLID_697_" class="st54" points="720.5,282.2 720.3,282.3 719.2,281.7 719.4,281.6 					"/>
				</g>
				<g id="XMLID_694_">
					<polygon id="XMLID_695_" class="st54" points="736.1,272.4 735.9,272.5 734.8,271.9 735,271.8 					"/>
				</g>
				<g id="XMLID_692_">
					<path id="XMLID_693_" class="st54" d="M735.7,253.5c-4.5,2.8-9.7,4.8-15,5.7c-2,0.4-4.2,0.4-6.5,0.5c-4.1,0.1-8.3,0.3-11.2,2.2
						c-1.8,1.2-3,3.1-3.3,4.9c-0.4,2.9-0.9,5.4-2.6,8.1c-3.2,4.7-8.7,8.3-15.5,10.1c-1.7,0.4-3.7,0.8-6.2,1
						c-3.2,0.3-6.6,0.4-10.9,0.2l-0.2,0c-2.7-0.1-6.4-0.2-7.7,1.9c-1,1.6,2.2,6.6,3.2,7.8l-0.2,0.1c-1-1.3-4.2-6.3-3.2-7.9
						c1.4-2.2,5.1-2.1,7.9-2l0.2,0c4.3,0.1,7.6,0.1,10.8-0.2c2.5-0.2,4.5-0.5,6.2-1c6.8-1.8,12.3-5.3,15.4-10c1.7-2.6,2.2-5.2,2.6-8
						c0.2-1.5,1.2-3.6,3.4-5c2.9-2,7.2-2.1,11.4-2.3c2.3-0.1,4.5-0.1,6.5-0.5c5.3-1,10.4-2.9,14.9-5.7L735.7,253.5z"/>
				</g>
				
					<linearGradient id="XMLID_2_" gradientUnits="userSpaceOnUse" x1="738.8162" y1="-138.5224" x2="738.8162" y2="-191.4154" gradientTransform="matrix(1 1.700000e-03 -1.700000e-03 1 -35.2233 444.3047)">
					<stop  offset="0" style="stop-color:#2398D5"/>
					<stop  offset="0.3133" style="stop-color:#4FA3D7"/>
					<stop  offset="0.725" style="stop-color:#6DAFD8"/>
					<stop  offset="0.9942" style="stop-color:#78B4D8"/>
				</linearGradient>
				<path id="XMLID_691_" class="st55" d="M737.1,254.2c-4.3,2.6-9.4,4.7-15,5.7c-5.7,1-13.3-0.3-17.9,2.7c-2,1.3-3.1,3.3-3.3,5
					c-0.4,2.7-0.9,5.4-2.6,8.1c-3,4.5-8.4,8.2-15.5,10.1c-4.1,1.1-11.1,1.4-15.4,1.2c-3-0.1-10.2-0.8-9.6,2.3
					c0.4,2.2,1.6,5.1,3.7,7.8l15.6,9.9l73-46.2L737.1,254.2z"/>
				<path id="XMLID_690_" class="st56" d="M657.8,286.9c0.2,0.1,0.2,0.3,0,0.5c-0.2,0.1-0.5,0.1-0.7,0c-0.2-0.1-0.2-0.3,0-0.5
					C657.3,286.8,657.6,286.7,657.8,286.9z"/>
				<path id="XMLID_689_" class="st56" d="M692.5,283.5c0.2,0.1,0.2,0.3,0,0.5c-0.2,0.1-0.6,0.2-0.8,0c-0.2-0.1-0.2-0.3,0-0.5
					C692,283.4,692.3,283.4,692.5,283.5z"/>
				<path id="XMLID_688_" class="st56" d="M709.7,275.7c0.2,0.1,0.2,0.4,0,0.5c-0.2,0.1-0.6,0.2-0.8,0c-0.2-0.1-0.2-0.4,0-0.5
					C709.1,275.6,709.5,275.6,709.7,275.7z"/>
				<path id="XMLID_687_" class="st56" d="M712.1,259.2c0.2,0.1,0.2,0.4,0,0.5c-0.2,0.2-0.6,0.2-0.8,0.1c-0.2-0.1-0.2-0.4,0-0.5
					C711.5,259.1,711.9,259.1,712.1,259.2z"/>
				<path id="XMLID_686_" class="st56" d="M711.8,250.8c0.2,0.1,0.2,0.3,0,0.5c-0.2,0.2-0.6,0.2-0.8,0.1c-0.2-0.1-0.2-0.3,0-0.5
					C711.2,250.7,711.6,250.6,711.8,250.8z"/>
				<g id="XMLID_684_">
					<path id="XMLID_685_" class="st54" d="M708.8,276.5c-4.5,2.9-10.3,5.1-15.9,7.2c-1.5,0.6-3.1,1.2-4.6,1.7
						c-1,0.4-1.9,0.8-2.9,1.2c-2.2,0.9-4.4,1.8-6.7,2.6c-11.4,3.9-12.9,10.6-12.9,10.7l-0.2,0c0-0.1,1.4-6.9,13-10.8
						c2.3-0.8,4.5-1.7,6.7-2.6c0.9-0.4,1.9-0.8,2.9-1.2c1.5-0.6,3.1-1.2,4.6-1.7c8.5-3.1,17.4-6.5,21.6-12.4c1.1-1.5,1.4-3.5,0.8-5
						c-0.8-2-2.3-5-3.8-6.6c0,0-1-0.9-1.6-2.3c-0.6-1.3-0.9-3.1,0.4-5c1.8-2.4,6-4.3,12.7-5.5l0,0.1c-6.6,1.2-10.8,3-12.6,5.4
						c-1.3,1.8-1,3.7-0.4,4.9c0.6,1.3,1.5,2.3,1.5,2.3c1.4,1.6,3,4.6,3.8,6.6c0.6,1.6,0.3,3.5-0.8,5.1
						C713.2,273.2,711.1,274.9,708.8,276.5z"/>
				</g>
				<g id="XMLID_682_">
					<polygon id="XMLID_683_" class="st54" points="751.7,261.1 676.3,308.7 649.8,291.8 649.6,291.9 676.3,308.9 752,261.2 					
						"/>
				</g>
				<g id="XMLID_680_">
					<polygon id="XMLID_681_" class="st54" points="673.6,307.1 672.7,307.7 672.5,307.5 673.4,307 					"/>
				</g>
				<g id="XMLID_678_">
					<polygon id="XMLID_679_" class="st54" points="691.4,300.5 691.2,300.6 690.2,300 690.4,299.9 					"/>
				</g>
				<g id="XMLID_676_">
					<polygon id="XMLID_677_" class="st54" points="670.7,305.2 669.8,305.8 669.6,305.7 670.5,305.1 					"/>
				</g>
				<g id="XMLID_674_">
					<polygon id="XMLID_675_" class="st54" points="667.8,303.4 666.9,303.9 666.7,303.8 667.6,303.2 					"/>
				</g>
				<g id="XMLID_672_">
					<polygon id="XMLID_673_" class="st54" points="664.9,301.5 664,302.1 663.8,302 664.7,301.4 					"/>
				</g>
				<g id="XMLID_670_">
					<polygon id="XMLID_671_" class="st54" points="662,299.7 661.1,300.3 661,300.2 661.8,299.6 					"/>
				</g>
				<g id="XMLID_668_">
					<polygon id="XMLID_669_" class="st54" points="659.2,297.9 658.3,298.5 658.1,298.4 659,297.8 					"/>
				</g>
				<g id="XMLID_666_">
					<polygon id="XMLID_667_" class="st54" points="656.4,296.1 655.5,296.7 655.3,296.6 656.2,296 					"/>
				</g>
				<g id="XMLID_664_">
					<polygon id="XMLID_665_" class="st54" points="653.6,294.3 652.7,294.9 652.5,294.8 653.4,294.2 					"/>
				</g>
				<g id="XMLID_662_">
					<polygon id="XMLID_663_" class="st54" points="650.8,292.6 649.9,293.1 649.8,293 650.6,292.5 					"/>
				</g>
				<g id="XMLID_660_">
					<polygon id="XMLID_661_" class="st54" points="705.6,291.6 705.4,291.7 704.4,291.1 704.6,291 					"/>
				</g>
				<g id="XMLID_658_">
					<polygon id="XMLID_659_" class="st54" points="720.5,282.2 720.3,282.3 719.2,281.7 719.4,281.6 					"/>
				</g>
				<g id="XMLID_656_">
					<polygon id="XMLID_657_" class="st54" points="736.1,272.4 735.9,272.5 734.8,271.9 735,271.8 					"/>
				</g>
				<g id="XMLID_654_">
					<path id="XMLID_655_" class="st54" d="M735.7,253.5c-4.5,2.8-9.7,4.8-15,5.7c-2,0.4-4.2,0.4-6.5,0.5c-4.1,0.1-8.3,0.3-11.2,2.2
						c-1.8,1.2-3,3.1-3.3,4.9c-0.4,2.9-0.9,5.4-2.6,8.1c-3.2,4.7-8.7,8.3-15.5,10.1c-1.7,0.4-3.7,0.8-6.2,1
						c-3.2,0.3-6.6,0.4-10.9,0.2l-0.2,0c-2.7-0.1-6.4-0.2-7.7,1.9c-1,1.6,2.2,6.6,3.2,7.8l-0.2,0.1c-1-1.3-4.2-6.3-3.2-7.9
						c1.4-2.2,5.1-2.1,7.9-2l0.2,0c4.3,0.1,7.6,0.1,10.8-0.2c2.5-0.2,4.5-0.5,6.2-1c6.8-1.8,12.3-5.3,15.4-10c1.7-2.6,2.2-5.2,2.6-8
						c0.2-1.5,1.2-3.6,3.4-5c2.9-2,7.2-2.1,11.4-2.3c2.3-0.1,4.5-0.1,6.5-0.5c5.3-1,10.4-2.9,14.9-5.7L735.7,253.5z"/>
				</g>
				<path id="XMLID_653_" class="st56" d="M657.8,286.9c0.2,0.1,0.2,0.3,0,0.5c-0.2,0.1-0.5,0.1-0.7,0c-0.2-0.1-0.2-0.3,0-0.5
					C657.3,286.8,657.6,286.7,657.8,286.9z"/>
				<path id="XMLID_652_" class="st56" d="M692.5,283.5c0.2,0.1,0.2,0.3,0,0.5c-0.2,0.1-0.6,0.2-0.8,0c-0.2-0.1-0.2-0.3,0-0.5
					C692,283.4,692.3,283.4,692.5,283.5z"/>
				<path id="XMLID_651_" class="st56" d="M709.7,275.7c0.2,0.1,0.2,0.4,0,0.5c-0.2,0.1-0.6,0.2-0.8,0c-0.2-0.1-0.2-0.4,0-0.5
					C709.1,275.6,709.5,275.6,709.7,275.7z"/>
				<path id="XMLID_650_" class="st56" d="M712.1,259.2c0.2,0.1,0.2,0.4,0,0.5c-0.2,0.2-0.6,0.2-0.8,0.1c-0.2-0.1-0.2-0.4,0-0.5
					C711.5,259.1,711.9,259.1,712.1,259.2z"/>
				<path id="XMLID_649_" class="st56" d="M711.8,250.8c0.2,0.1,0.2,0.3,0,0.5c-0.2,0.2-0.6,0.2-0.8,0.1c-0.2-0.1-0.2-0.3,0-0.5
					C711.2,250.7,711.6,250.6,711.8,250.8z"/>
				
					<linearGradient id="XMLID_3_" gradientUnits="userSpaceOnUse" x1="701.8352" y1="-168.4633" x2="784.3781" y2="-168.4633" gradientTransform="matrix(1 1.700000e-03 -1.700000e-03 1 -35.2233 444.3047)">
					<stop  offset="0" style="stop-color:#F0833A"/>
					<stop  offset="0.166" style="stop-color:#ED7F53"/>
					<stop  offset="0.4374" style="stop-color:#E7776F"/>
					<stop  offset="0.6768" style="stop-color:#E4707F"/>
					<stop  offset="0.8725" style="stop-color:#E16C88"/>
					<stop  offset="1" style="stop-color:#E16A8B"/>
				</linearGradient>
				<path id="XMLID_648_" class="st57" d="M666.9,300.5c0,0,1.3-6.8,13-10.8c3.3-1.1,6.4-2.5,9.6-3.7c9.8-3.8,21-7.1,26.3-14.4
					c1.9-2.6,1.6-5.3,0.2-7.8c-2.2-4-7.8-7.9-3.4-12.5c2.4-2.5,7.4-3.5,11.8-3.8l25.1,13l-72.9,46.2L666.9,300.5z"/>
				
					<linearGradient id="XMLID_4_" gradientUnits="userSpaceOnUse" x1="701.8352" y1="-168.2864" x2="785.0695" y2="-168.2864" gradientTransform="matrix(1 1.700000e-03 -1.700000e-03 1 -35.2233 444.3047)">
					<stop  offset="0" style="stop-color:#F0833A"/>
					<stop  offset="0.2038" style="stop-color:#ED804D"/>
					<stop  offset="0.6329" style="stop-color:#E77572"/>
					<stop  offset="1" style="stop-color:#E16A8B"/>
				</linearGradient>
				<path id="XMLID_647_" class="st58" d="M666.9,300.5c0,0,1.3-6.8,13-10.8c3.3-1.1,6.4-2.5,9.6-3.7c9.8-3.8,21-7.1,26.3-14.4
					c1.9-2.6,1.6-5.3,0.2-7.8c-2.2-4-7.8-7.9-3.4-12.5c2.4-2.5,7.4-3.5,11.8-3.8l25.8,13.4l-73,46.2L666.9,300.5z"/>
				<polygon id="XMLID_646_" class="st59" points="685,307.6 679.9,310.9 677.9,309.6 683,306.4 				"/>
				<polygon id="XMLID_645_" class="st59" points="696.5,300.5 691.2,303.8 689.1,302.5 694.4,299.2 				"/>
				<polygon id="XMLID_644_" class="st59" points="711,291.5 705.4,294.9 703.2,293.7 708.8,290.2 				"/>
				<polygon id="XMLID_643_" class="st59" points="726,282.1 720.1,285.8 717.9,284.5 723.7,280.8 				"/>
				<polygon id="XMLID_642_" class="st59" points="741.8,272.3 735.6,276.1 733.3,274.8 739.4,271 				"/>
				<polygon id="XMLID_641_" class="st59" points="758.7,261.7 752.2,265.7 749.8,264.4 756.2,260.4 				"/>
				<g id="XMLID_638_">
					<path id="XMLID_640_" class="st1" d="M675.5,290.1c0.3,0.2,0.4,0.6,0,0.8c-0.3,0.2-0.9,0.2-1.2,0c-0.3-0.2-0.3-0.6,0-0.8
						C674.5,289.9,675.1,289.9,675.5,290.1z"/>
					<path id="XMLID_639_" class="st56" d="M675.3,290.2c0.2,0.1,0.2,0.4,0,0.6c-0.2,0.2-0.6,0.2-0.9,0c-0.2-0.1-0.2-0.4,0-0.6
						C674.6,290.1,675,290.1,675.3,290.2z"/>
				</g>
				<g id="XMLID_635_">
					<path id="XMLID_637_" class="st1" d="M692.8,283.3c0.4,0.2,0.4,0.6,0,0.8c-0.4,0.2-1,0.3-1.3,0c-0.4-0.2-0.4-0.6,0-0.8
						C691.9,283.1,692.4,283.1,692.8,283.3z"/>
					<path id="XMLID_636_" class="st56" d="M692.6,283.5c0.3,0.2,0.3,0.4,0,0.6c-0.3,0.2-0.7,0.2-0.9,0c-0.3-0.2-0.3-0.4,0-0.6
						C691.9,283.3,692.4,283.3,692.6,283.5z"/>
				</g>
				<g id="XMLID_632_">
					<path id="XMLID_634_" class="st1" d="M710,275.6c0.4,0.2,0.4,0.6,0,0.8c-0.4,0.2-1,0.3-1.4,0.1c-0.4-0.2-0.4-0.6,0-0.8
						C709,275.4,709.6,275.3,710,275.6z"/>
					<path id="XMLID_633_" class="st56" d="M709.8,275.7c0.3,0.2,0.3,0.4,0,0.6c-0.3,0.2-0.7,0.2-1,0c-0.3-0.2-0.3-0.4,0-0.6
						C709.1,275.6,709.5,275.5,709.8,275.7z"/>
				</g>
				<g id="XMLID_629_">
					<path id="XMLID_631_" class="st1" d="M712.4,259c0.4,0.2,0.4,0.6,0,0.9c-0.4,0.3-1,0.3-1.4,0.1c-0.4-0.2-0.4-0.6,0-0.8
						C711.4,258.9,712,258.8,712.4,259z"/>
					<path id="XMLID_630_" class="st56" d="M712.2,259.2c0.3,0.1,0.3,0.4,0,0.6c-0.3,0.2-0.7,0.2-1,0.1c-0.3-0.1-0.3-0.4,0-0.6
						C711.5,259.1,711.9,259,712.2,259.2z"/>
				</g>
				<g id="XMLID_626_">
					<path id="XMLID_628_" class="st1" d="M712.1,250.6c0.4,0.2,0.4,0.6,0,0.9c-0.4,0.3-1,0.3-1.4,0.1c-0.4-0.2-0.4-0.6,0-0.9
						C711.1,250.4,711.7,250.4,712.1,250.6z"/>
					<path id="XMLID_627_" class="st56" d="M711.9,250.7c0.3,0.1,0.3,0.4,0,0.6c-0.3,0.2-0.7,0.2-1,0.1c-0.3-0.1-0.3-0.4,0-0.6
						C711.2,250.6,711.6,250.6,711.9,250.7z"/>
				</g>
				<g id="XMLID_623_">
					<path id="XMLID_625_" class="st1" d="M657.8,286.6c0.3,0.2,0.3,0.6,0,0.8c-0.3,0.2-0.9,0.2-1.2,0c-0.3-0.2-0.3-0.6,0-0.8
						C657,286.4,657.5,286.4,657.8,286.6z"/>
					<path id="XMLID_624_" class="st56" d="M657.6,286.8c0.2,0.1,0.2,0.4,0,0.5c-0.2,0.2-0.6,0.2-0.8,0c-0.2-0.1-0.2-0.4,0-0.5
						C657,286.6,657.4,286.6,657.6,286.8z"/>
				</g>
			</g>
		</g>
	</g>
	<polygon class="st60" points="628.8,297.6 628.7,307.7 628.8,307.8 750.7,236.9 742,231.8 	"/>
	<polygon class="st60" points="529.9,210.4 534.2,226.5 655.6,155.8 650.6,140.6 	"/>
</g>
</svg>
